<svg xmlns="http://www.w3.org/2000/svg" viewBox="0 0 388 130" width="388" height="130">
  <defs>
    <clipPath id="scratch-clip">
      <rect x="0" y="0" width="388" height="130" />
    </clipPath>
  </defs>
  <g clip-path="url(#scratch-clip)" id="space-1" stroke="#fff" stroke-linecap="round" fill="none" stroke-opacity="0.47">
    <line x1="126.59" y1="15.42" x2="127.27" y2="28.21" stroke-width="0.61" />
    <line x1="85.39" y1="109.27" x2="83.08" y2="136.14" stroke-width="0.59" />
    <line x1="86.83" y1="119.70" x2="84.53" y2="129.21" stroke-width="0.46" />
    <line x1="348.90" y1="66.08" x2="363.96" y2="123.76" stroke-width="0.63" />
    <line x1="354.37" y1="91.37" x2="357.09" y2="104.83" stroke-width="0.50" />
    <line x1="82.51" y1="83.51" x2="79.87" y2="103.77" stroke-width="0.22" />
    <line x1="121.26" y1="-13.77" x2="115.96" y2="40.30" stroke-width="0.55" />
    <line x1="1.57" y1="79.78" x2="5.25" y2="147.88" stroke-width="0.78" />
    <line x1="120.61" y1="45.92" x2="132.75" y2="111.62" stroke-width="0.52" />
    <line x1="284.51" y1="54.33" x2="291.53" y2="113.53" stroke-width="0.46" />
    <line x1="290.14" y1="77.66" x2="289.23" y2="94.44" stroke-width="0.36" />
    <line x1="44.45" y1="94.37" x2="49.04" y2="121.54" stroke-width="0.85" />
    <line x1="44.23" y1="104.65" x2="43.42" y2="117.01" stroke-width="0.62" />
    <line x1="30.83" y1="96.74" x2="39.95" y2="128.95" stroke-width="0.64" />
    <line x1="93.24" y1="46.73" x2="107.22" y2="110.09" stroke-width="0.12" />
    <line x1="99.69" y1="71.82" x2="101.50" y2="82.79" stroke-width="0.08" />
    <line x1="1.17" y1="73.47" x2="15.90" y2="125.64" stroke-width="0.82" />
    <line x1="160.91" y1="59.66" x2="157.28" y2="109.15" stroke-width="0.68" />
    <line x1="310.80" y1="92.98" x2="315.85" y2="141.32" stroke-width="0.73" />
    <line x1="311.82" y1="109.45" x2="311.29" y2="117.58" stroke-width="0.52" />
    <line x1="92.67" y1="52.94" x2="94.06" y2="64.97" stroke-width="0.28" />
    <line x1="108.03" y1="24.67" x2="112.82" y2="54.29" stroke-width="0.16" />
    <line x1="285.44" y1="-16.92" x2="284.61" y2="20.99" stroke-width="0.67" />
    <line x1="286.80" y1="-7.17" x2="281.59" y2="7.86" stroke-width="0.33" />
    <line x1="254.71" y1="46.23" x2="254.69" y2="111.23" stroke-width="0.25" />
    <line x1="304.82" y1="18.91" x2="315.93" y2="90.61" stroke-width="0.71" />
    <line x1="308.67" y1="48.95" x2="316.77" y2="67.20" stroke-width="0.53" />
    <line x1="204.84" y1="108.03" x2="214.46" y2="145.92" stroke-width="0.61" />
    <line x1="337.04" y1="-13.98" x2="341.92" y2="46.15" stroke-width="0.70" />
    <line x1="344.52" y1="4.22" x2="341.47" y2="28.89" stroke-width="0.35" />
    <line x1="-3.68" y1="77.62" x2="4.39" y2="108.82" stroke-width="0.68" />
    <line x1="-3.92" y1="84.40" x2="-0.75" y2="95.00" stroke-width="0.55" />
    <line x1="28.13" y1="-2.88" x2="27.39" y2="31.22" stroke-width="0.74" />
    <line x1="29.53" y1="6.74" x2="31.42" y2="20.71" stroke-width="0.55" />
    <line x1="372.65" y1="-2.34" x2="373.55" y2="35.04" stroke-width="0.75" />
    <line x1="241.59" y1="52.93" x2="252.96" y2="94.60" stroke-width="0.60" />
    <line x1="330.20" y1="4.49" x2="323.69" y2="73.09" stroke-width="0.56" />
    <line x1="323.26" y1="25.90" x2="323.58" y2="51.82" stroke-width="0.32" />
    <line x1="108.62" y1="8.21" x2="126.46" y2="74.08" stroke-width="0.52" />
    <line x1="80.18" y1="40.11" x2="78.98" y2="63.05" stroke-width="0.27" />
    <line x1="224.60" y1="48.51" x2="231.40" y2="112.63" stroke-width="0.58" />
    <line x1="228.31" y1="66.79" x2="233.66" y2="95.64" stroke-width="0.28" />
    <line x1="387.44" y1="-12.05" x2="384.63" y2="17.48" stroke-width="0.16" />
    <line x1="388.21" y1="-2.09" x2="385.82" y2="8.01" stroke-width="0.12" />
    <line x1="130.28" y1="52.09" x2="126.90" y2="121.16" stroke-width="0.79" />
    <line x1="124.43" y1="76.41" x2="129.58" y2="102.86" stroke-width="0.37" />
    <line x1="217.40" y1="1.07" x2="212.25" y2="42.08" stroke-width="0.73" />
    <line x1="194.47" y1="65.88" x2="202.29" y2="127.34" stroke-width="0.21" />
    <line x1="39.10" y1="-16.65" x2="40.35" y2="19.02" stroke-width="0.57" />
    <line x1="37.52" y1="-0.31" x2="37.47" y2="5.87" stroke-width="0.31" />
    <line x1="70.00" y1="97.95" x2="63.05" y2="150.62" stroke-width="0.70" />
    <line x1="252.75" y1="48.77" x2="251.74" y2="98.67" stroke-width="0.24" />
    <line x1="231.62" y1="-21.62" x2="243.47" y2="49.61" stroke-width="0.23" />
  </g>
  <g clip-path="url(#scratch-clip)" id="space-2" stroke="#fff" stroke-linecap="round" fill="none" stroke-opacity="0.28">
    <line x1="22.67" y1="62.29" x2="56.55" y2="90.89" stroke-width="0.13" />
    <line x1="38.50" y1="71.94" x2="43.29" y2="78.38" stroke-width="0.07" />
    <line x1="301.47" y1="65.86" x2="322.44" y2="78.39" stroke-width="0.52" />
    <line x1="309.63" y1="69.55" x2="318.51" y2="76.36" stroke-width="0.39" />
    <line x1="278.62" y1="44.58" x2="305.31" y2="60.71" stroke-width="0.33" />
    <line x1="67.54" y1="116.00" x2="111.30" y2="138.20" stroke-width="0.24" />
    <line x1="254.36" y1="96.49" x2="287.60" y2="126.03" stroke-width="0.33" />
    <line x1="184.48" y1="50.80" x2="192.55" y2="56.51" stroke-width="0.43" />
    <line x1="129.58" y1="93.81" x2="153.30" y2="121.93" stroke-width="0.50" />
    <line x1="137.41" y1="100.82" x2="145.03" y2="114.36" stroke-width="0.32" />
    <line x1="103.67" y1="108.22" x2="117.07" y2="124.09" stroke-width="0.11" />
    <line x1="154.21" y1="25.20" x2="168.64" y2="38.94" stroke-width="0.57" />
    <line x1="351.37" y1="65.65" x2="362.54" y2="73.48" stroke-width="0.11" />
    <line x1="57.11" y1="81.14" x2="100.51" y2="103.14" stroke-width="0.53" />
    <line x1="98.02" y1="67.85" x2="109.49" y2="78.33" stroke-width="0.37" />
    <line x1="116.39" y1="-2.57" x2="146.23" y2="14.78" stroke-width="0.13" />
    <line x1="288.85" y1="76.88" x2="303.21" y2="88.75" stroke-width="0.54" />
    <line x1="294.15" y1="83.10" x2="295.96" y2="84.99" stroke-width="0.28" />
    <line x1="123.78" y1="110.41" x2="142.54" y2="125.68" stroke-width="0.33" />
    <line x1="78.53" y1="50.69" x2="95.58" y2="62.11" stroke-width="0.59" />
    <line x1="82.40" y1="55.77" x2="87.00" y2="57.36" stroke-width="0.30" />
    <line x1="92.89" y1="39.63" x2="103.94" y2="46.40" stroke-width="0.24" />
    <line x1="96.74" y1="44.89" x2="99.61" y2="46.35" stroke-width="0.16" />
    <line x1="218.09" y1="-5.01" x2="232.96" y2="6.21" stroke-width="0.31" />
    <line x1="225.72" y1="1.40" x2="230.31" y2="3.28" stroke-width="0.21" />
    <line x1="-16.63" y1="91.33" x2="17.61" y2="128.16" stroke-width="0.23" />
    <line x1="-6.13" y1="103.98" x2="2.26" y2="112.49" stroke-width="0.18" />
    <line x1="362.62" y1="34.33" x2="384.34" y2="54.01" stroke-width="0.44" />
    <line x1="367.20" y1="40.90" x2="375.38" y2="50.97" stroke-width="0.34" />
    <line x1="270.87" y1="24.46" x2="283.87" y2="37.38" stroke-width="0.38" />
    <line x1="64.09" y1="7.71" x2="73.22" y2="13.14" stroke-width="0.17" />
    <line x1="179.96" y1="53.64" x2="205.23" y2="79.74" stroke-width="0.31" />
    <line x1="78.75" y1="22.15" x2="104.69" y2="38.18" stroke-width="0.37" />
    <line x1="85.68" y1="27.98" x2="93.17" y2="30.63" stroke-width="0.17" />
    <line x1="47.97" y1="24.05" x2="89.64" y2="50.79" stroke-width="0.11" />
    <line x1="65.69" y1="1.46" x2="90.40" y2="17.01" stroke-width="0.56" />
    <line x1="311.96" y1="46.25" x2="341.30" y2="68.73" stroke-width="0.43" />
    <line x1="321.30" y1="53.80" x2="331.38" y2="59.71" stroke-width="0.31" />
    <line x1="32.72" y1="78.37" x2="67.67" y2="114.87" stroke-width="0.40" />
    <line x1="332.81" y1="64.93" x2="372.60" y2="96.75" stroke-width="0.30" />
    <line x1="349.09" y1="81.02" x2="358.35" y2="84.43" stroke-width="0.23" />
    <line x1="189.50" y1="103.63" x2="211.89" y2="115.26" stroke-width="0.41" />
    <line x1="196.50" y1="109.66" x2="202.79" y2="113.25" stroke-width="0.28" />
    <line x1="245.27" y1="110.31" x2="278.83" y2="145.72" stroke-width="0.56" />
    <line x1="19.23" y1="74.64" x2="27.85" y2="78.92" stroke-width="0.57" />
    <line x1="24.64" y1="75.89" x2="26.78" y2="77.67" stroke-width="0.42" />
    <line x1="336.68" y1="48.95" x2="371.82" y2="87.11" stroke-width="0.22" />
    <line x1="84.53" y1="15.30" x2="110.53" y2="31.47" stroke-width="0.61" />
    <line x1="93.36" y1="18.51" x2="100.85" y2="26.75" stroke-width="0.47" />
    <line x1="210.05" y1="-1.46" x2="243.17" y2="24.23" stroke-width="0.38" />
    <line x1="296.53" y1="35.28" x2="337.25" y2="56.20" stroke-width="0.40" />
    <line x1="244.69" y1="111.74" x2="278.93" y2="140.58" stroke-width="0.36" />
    <line x1="252.26" y1="125.32" x2="267.81" y2="132.14" stroke-width="0.25" />
    <line x1="122.33" y1="113.48" x2="133.46" y2="125.50" stroke-width="0.11" />
    <line x1="305.75" y1="24.04" x2="337.17" y2="43.61" stroke-width="0.54" />
    <line x1="316.32" y1="30.34" x2="327.71" y2="42.23" stroke-width="0.30" />
    <line x1="210.57" y1="94.79" x2="217.21" y2="99.62" stroke-width="0.28" />
    <line x1="215.06" y1="94.20" x2="216.61" y2="95.89" stroke-width="0.17" />
    <line x1="290.39" y1="89.40" x2="311.94" y2="102.48" stroke-width="0.40" />
    <line x1="33.69" y1="76.90" x2="62.20" y2="102.09" stroke-width="0.28" />
    <line x1="4.52" y1="124.08" x2="15.09" y2="134.38" stroke-width="0.57" />
    <line x1="10.47" y1="131.03" x2="12.32" y2="132.60" stroke-width="0.37" />
    <line x1="198.69" y1="100.54" x2="221.01" y2="117.13" stroke-width="0.57" />
    <line x1="91.35" y1="-9.14" x2="130.11" y2="10.09" stroke-width="0.25" />
    <line x1="109.58" y1="65.47" x2="127.67" y2="84.24" stroke-width="0.55" />
    <line x1="115.47" y1="73.41" x2="123.61" y2="79.84" stroke-width="0.41" />
    <line x1="68.28" y1="-9.73" x2="103.36" y2="13.41" stroke-width="0.21" />
    <line x1="80.15" y1="7.32" x2="96.65" y2="18.16" stroke-width="0.59" />
    <line x1="85.61" y1="13.05" x2="88.66" y2="15.08" stroke-width="0.27" />
    <line x1="8.82" y1="94.60" x2="23.97" y2="109.76" stroke-width="0.39" />
    <line x1="108.13" y1="-2.49" x2="131.98" y2="18.71" stroke-width="0.61" />
    <line x1="112.21" y1="5.73" x2="123.82" y2="12.32" stroke-width="0.41" />
    <line x1="270.78" y1="87.91" x2="308.46" y2="109.18" stroke-width="0.45" />
    <line x1="352.77" y1="23.82" x2="381.21" y2="50.18" stroke-width="0.18" />
    <line x1="285.25" y1="38.19" x2="326.38" y2="63.62" stroke-width="0.20" />
    <line x1="220.54" y1="-0.84" x2="254.88" y2="18.90" stroke-width="0.48" />
    <line x1="233.26" y1="5.98" x2="242.82" y2="10.43" stroke-width="0.32" />
    <line x1="141.26" y1="110.98" x2="159.82" y2="121.52" stroke-width="0.33" />
    <line x1="347.07" y1="-15.94" x2="382.54" y2="19.62" stroke-width="0.30" />
  </g>
  <g clip-path="url(#scratch-clip)" id="space-3" stroke="#fff" stroke-linecap="round" fill="none" stroke-opacity="0.51">
    <line x1="286.93" y1="67.15" x2="339.14" y2="17.11" stroke-width="0.39" />
    <line x1="153.25" y1="119.64" x2="198.17" y2="66.82" stroke-width="0.58" />
    <line x1="168.12" y1="101.13" x2="179.80" y2="79.21" stroke-width="0.39" />
    <line x1="130.28" y1="80.38" x2="157.96" y2="46.00" stroke-width="0.99" />
    <line x1="355.94" y1="105.57" x2="368.94" y2="90.40" stroke-width="1.00" />
    <line x1="6.42" y1="36.41" x2="39.65" y2="2.09" stroke-width="0.78" />
    <line x1="304.17" y1="99.27" x2="320.11" y2="73.82" stroke-width="0.99" />
    <line x1="313.52" y1="95.27" x2="317.01" y2="85.96" stroke-width="0.49" />
    <line x1="271.67" y1="134.80" x2="309.04" y2="91.77" stroke-width="0.72" />
    <line x1="-6.65" y1="76.71" x2="39.21" y2="36.96" stroke-width="0.58" />
    <line x1="79.04" y1="64.08" x2="126.17" y2="11.73" stroke-width="0.18" />
    <line x1="138.60" y1="130.64" x2="178.82" y2="93.21" stroke-width="0.70" />
    <line x1="154.67" y1="112.93" x2="164.81" y2="103.44" stroke-width="0.36" />
    <line x1="69.01" y1="60.21" x2="97.61" y2="29.89" stroke-width="0.78" />
    <line x1="168.73" y1="120.51" x2="186.26" y2="103.72" stroke-width="0.20" />
    <line x1="313.15" y1="89.92" x2="339.60" y2="61.04" stroke-width="0.62" />
    <line x1="276.73" y1="154.60" x2="335.34" y2="101.61" stroke-width="0.64" />
    <line x1="200.33" y1="140.36" x2="253.81" y2="86.70" stroke-width="0.18" />
    <line x1="294.21" y1="105.38" x2="328.30" y2="77.35" stroke-width="0.47" />
    <line x1="297.17" y1="93.15" x2="342.36" y2="44.73" stroke-width="0.28" />
    <line x1="313.98" y1="75.41" x2="324.43" y2="54.94" stroke-width="0.15" />
    <line x1="106.15" y1="100.58" x2="153.08" y2="29.41" stroke-width="0.90" />
    <line x1="125.00" y1="74.77" x2="130.12" y2="61.40" stroke-width="0.62" />
  </g>
  <g clip-path="url(#scratch-clip)" id="space-4" stroke="#fff" stroke-linecap="round" fill="none" stroke-opacity="0.28">
    <line x1="22.76" y1="72.33" x2="56.47" y2="80.85" stroke-width="0.10" />
    <line x1="37.88" y1="73.97" x2="43.47" y2="76.86" stroke-width="0.05" />
    <line x1="302.41" y1="71.32" x2="321.50" y2="72.93" stroke-width="0.42" />
    <line x1="309.39" y1="71.93" x2="318.00" y2="73.68" stroke-width="0.31" />
    <line x1="279.79" y1="51.54" x2="304.14" y2="53.75" stroke-width="0.27" />
    <line x1="70.19" y1="126.80" x2="108.66" y2="127.41" stroke-width="0.20" />
    <line x1="254.19" y1="106.57" x2="287.77" y2="115.96" stroke-width="0.27" />
    <line x1="184.69" y1="53.03" x2="192.34" y2="54.28" stroke-width="0.35" />
    <line x1="128.25" y1="102.04" x2="154.63" y2="113.71" stroke-width="0.41" />
    <line x1="136.24" y1="104.18" x2="146.27" y2="111.10" stroke-width="0.26" />
    <line x1="102.92" y1="112.87" x2="117.82" y2="119.45" stroke-width="0.09" />
    <line x1="153.98" y1="29.71" x2="168.87" y2="34.43" stroke-width="0.46" />
    <line x1="351.68" y1="68.72" x2="362.24" y2="70.40" stroke-width="0.09" />
    <line x1="59.73" y1="91.85" x2="97.88" y2="92.43" stroke-width="0.43" />
    <line x1="97.91" y1="71.37" x2="109.60" y2="74.81" stroke-width="0.30" />
    <line x1="117.81" y1="5.12" x2="144.80" y2="7.09" stroke-width="0.11" />
    <line x1="288.93" y1="81.10" x2="303.13" y2="84.53" stroke-width="0.44" />
    <line x1="294.26" y1="83.47" x2="296.19" y2="84.18" stroke-width="0.23" />
    <line x1="123.93" y1="115.89" x2="142.40" y2="120.20" stroke-width="0.27" />
    <line x1="79.08" y1="55.31" x2="95.02" y2="57.50" stroke-width="0.48" />
    <line x1="83.22" y1="56.77" x2="87.01" y2="56.31" stroke-width="0.25" />
    <line x1="93.35" y1="42.52" x2="103.47" y2="43.50" stroke-width="0.19" />
    <line x1="96.95" y1="45.14" x2="99.48" y2="45.18" stroke-width="0.13" />
    <line x1="218.36" y1="-0.80" x2="232.69" y2="2.00" stroke-width="0.26" />
    <line x1="225.63" y1="2.16" x2="229.51" y2="1.91" stroke-width="0.17" />
    <line x1="-17.90" y1="102.65" x2="18.89" y2="116.84" stroke-width="0.19" />
    <line x1="-5.92" y1="106.95" x2="2.91" y2="110.06" stroke-width="0.15" />
    <line x1="362.45" y1="40.97" x2="384.52" y2="47.37" stroke-width="0.36" />
    <line x1="367.06" y1="43.48" x2="376.29" y2="47.77" stroke-width="0.28" />
    <line x1="270.57" y1="28.60" x2="284.18" y2="33.24" stroke-width="0.31" />
    <line x1="64.51" y1="10.08" x2="72.80" y2="10.77" stroke-width="0.14" />
    <line x1="179.21" y1="61.84" x2="205.98" y2="71.54" stroke-width="0.26" />
    <line x1="79.82" y1="28.97" x2="103.61" y2="31.35" stroke-width="0.30" />
    <line x1="86.73" y1="29.81" x2="92.92" y2="29.10" stroke-width="0.14" />
    <line x1="49.53" y1="35.16" x2="88.08" y2="39.68" stroke-width="0.09" />
    <line x1="66.67" y1="8.00" x2="89.42" y2="10.47" stroke-width="0.46" />
    <line x1="312.43" y1="54.61" x2="340.83" y2="60.37" stroke-width="0.35" />
    <line x1="321.82" y1="56.54" x2="330.96" y2="57.24" stroke-width="0.25" />
    <line x1="31.61" y1="89.76" x2="68.78" y2="103.48" stroke-width="0.33" />
    <line x1="333.22" y1="76.46" x2="372.20" y2="85.21" stroke-width="0.25" />
    <line x1="349.69" y1="82.78" x2="357.39" y2="82.00" stroke-width="0.19" />
    <line x1="190.80" y1="109.20" x2="210.58" y2="109.69" stroke-width="0.33" />
    <line x1="197.00" y1="110.91" x2="202.66" y2="111.29" stroke-width="0.23" />
    <line x1="244.14" y1="121.30" x2="279.96" y2="134.73" stroke-width="0.46" />
    <line x1="19.76" y1="76.76" x2="27.31" y2="76.81" stroke-width="0.47" />
    <line x1="24.26" y1="76.52" x2="26.38" y2="77.04" stroke-width="0.34" />
    <line x1="335.31" y1="60.62" x2="373.19" y2="75.44" stroke-width="0.18" />
    <line x1="85.58" y1="22.15" x2="109.47" y2="24.61" stroke-width="0.50" />
    <line x1="93.12" y1="21.15" x2="101.24" y2="24.38" stroke-width="0.39" />
    <line x1="210.53" y1="8.02" x2="242.69" y2="14.75" stroke-width="0.31" />
    <line x1="298.94" y1="45.37" x2="334.83" y2="46.12" stroke-width="0.33" />
    <line x1="244.79" y1="121.88" x2="278.83" y2="130.44" stroke-width="0.29" />
    <line x1="253.69" y1="128.54" x2="267.00" y2="128.01" stroke-width="0.20" />
    <line x1="121.91" y1="117.16" x2="133.88" y2="121.81" stroke-width="0.09" />
    <line x1="307.03" y1="32.33" x2="335.89" y2="35.32" stroke-width="0.44" />
    <line x1="315.86" y1="33.62" x2="327.98" y2="38.08" stroke-width="0.24" />
    <line x1="210.72" y1="96.65" x2="217.06" y2="97.76" stroke-width="0.22" />
    <line x1="214.66" y1="95.10" x2="216.33" y2="95.75" stroke-width="0.14" />
    <line x1="291.32" y1="95.04" x2="311.01" y2="96.84" stroke-width="0.33" />
    <line x1="33.57" y1="85.52" x2="62.33" y2="93.47" stroke-width="0.23" />
    <line x1="4.32" y1="127.42" x2="15.30" y2="131.04" stroke-width="0.47" />
    <line x1="10.19" y1="131.12" x2="12.03" y2="131.59" stroke-width="0.30" />
    <line x1="199.14" y1="106.83" x2="220.57" y2="110.85" stroke-width="0.46" />
    <line x1="93.77" y1="0.36" x2="127.69" y2="0.59" stroke-width="0.20" />
    <line x1="109.03" y1="71.35" x2="128.22" y2="78.36" stroke-width="0.45" />
    <line x1="115.40" y1="75.45" x2="123.36" y2="77.18" stroke-width="0.33" />
    <line x1="69.48" y1="-0.29" x2="102.16" y2="3.97" stroke-width="0.17" />
    <line x1="80.72" y1="11.76" x2="96.08" y2="13.72" stroke-width="0.48" />
    <line x1="85.93" y1="13.64" x2="88.78" y2="14.03" stroke-width="0.22" />
    <line x1="8.45" y1="99.44" x2="24.34" y2="104.92" stroke-width="0.32" />
    <line x1="108.01" y1="4.74" x2="132.10" y2="11.48" stroke-width="0.49" />
    <line x1="113.15" y1="8.53" x2="123.60" y2="9.19" stroke-width="0.34" />
    <line x1="272.69" y1="97.53" x2="306.56" y2="99.57" stroke-width="0.37" />
    <line x1="352.44" y1="32.60" x2="381.54" y2="41.40" stroke-width="0.14" />
    <line x1="286.95" y1="49.01" x2="324.68" y2="52.79" stroke-width="0.17" />
    <line x1="222.22" y1="7.97" x2="253.20" y2="10.09" stroke-width="0.39" />
    <line x1="233.85" y1="8.42" x2="242.11" y2="8.28" stroke-width="0.26" />
    <line x1="142.19" y1="115.72" x2="158.89" y2="116.77" stroke-width="0.27" />
    <line x1="346.20" y1="-4.59" x2="383.42" y2="8.27" stroke-width="0.25" />
    <line x1="123.36" y1="103.41" x2="133.09" y2="107.29" stroke-width="0.39" />
    <line x1="247.41" y1="121.96" x2="273.34" y2="125.60" stroke-width="0.10" />
    <line x1="253.97" y1="125.84" x2="262.91" y2="124.53" stroke-width="0.05" />
    <line x1="137.70" y1="119.69" x2="166.29" y2="123.55" stroke-width="0.28" />
    <line x1="169.30" y1="16.75" x2="206.06" y2="30.18" stroke-width="0.50" />
    <line x1="184.41" y1="19.72" x2="189.63" y2="23.31" stroke-width="0.29" />
    <line x1="64.85" y1="109.45" x2="98.34" y2="110.63" stroke-width="0.49" />
    <line x1="75.57" y1="111.95" x2="85.72" y2="111.19" stroke-width="0.29" />
    <line x1="268.76" y1="124.80" x2="290.20" y2="128.02" stroke-width="0.24" />
    <line x1="166.98" y1="5.12" x2="193.37" y2="10.28" stroke-width="0.37" />
    <line x1="174.61" y1="7.04" x2="185.15" y2="11.64" stroke-width="0.21" />
    <line x1="88.05" y1="21.36" x2="124.81" y2="31.72" stroke-width="0.33" />
    <line x1="101.58" y1="23.52" x2="114.52" y2="31.50" stroke-width="0.21" />
    <line x1="205.90" y1="76.29" x2="225.15" y2="83.28" stroke-width="0.49" />
    <line x1="215.19" y1="78.10" x2="219.93" y2="78.46" stroke-width="0.28" />
    <line x1="231.75" y1="25.14" x2="248.36" y2="25.39" stroke-width="0.31" />
    <line x1="236.58" y1="23.21" x2="242.48" y2="24.15" stroke-width="0.17" />
    <line x1="179.58" y1="51.85" x2="193.43" y2="52.38" stroke-width="0.43" />
    <line x1="186.39" y1="66.53" x2="219.72" y2="67.30" stroke-width="0.29" />
    <line x1="54.44" y1="53.66" x2="90.85" y2="58.94" stroke-width="0.14" />
    <line x1="119.59" y1="111.62" x2="139.69" y2="113.09" stroke-width="0.11" />
    <line x1="252.18" y1="83.49" x2="287.93" y2="89.50" stroke-width="0.31" />
    <line x1="262.72" y1="86.34" x2="273.23" y2="87.38" stroke-width="0.19" />
    <line x1="137.83" y1="12.70" x2="155.91" y2="14.54" stroke-width="0.16" />
  </g>
</svg>
