<?xml version="1.0"?>
<svg xmlns="http://www.w3.org/2000/svg" xmlns:xlink="http://www.w3.org/1999/xlink" version="1.1" id="Capa_1" x="0px" y="0px" viewBox="0 0 504.18 504.18" style="enable-background:new 0 0 504.18 504.18;" xml:space="preserve" width="512px" height="512px" class=""><g><g transform="translate(0 -1)">
	<g>
		<g>
			<path d="M403.432,51.529v-0.157c2.226,0.001,4.362-0.884,5.936-2.458c1.574-1.574,2.458-3.709,2.458-5.936V26.191     c-0.015-13.9-11.28-25.165-25.18-25.18h-50.361c-7.236,0.023-14.108,3.178-18.842,8.65     C191.984-24.013,61.48,43.176,16.004,164.855s8.97,257.991,125.762,314.856s257.672,15.656,325.408-95.185     S507.313,129.519,403.432,51.529z M327.891,26.191c0.005-4.634,3.76-8.389,8.393-8.393h50.361     c4.634,0.005,8.389,3.76,8.393,8.393v8.393h-67.148V26.191z M70.152,364.387c-1.574,1.574-2.458,3.709-2.458,5.936v27.61     C12.011,327.246,1.618,230.956,40.936,150.017S162.366,17.723,252.35,17.798c19.853,0.037,39.622,2.584,58.836,7.579     c-0.008,0.277-0.082,0.536-0.082,0.814v16.787c-0.001,2.226,0.884,4.362,2.458,5.936c1.574,1.574,3.709,2.458,5.936,2.458v67.148     c0,0.163,0.084,0.3,0.093,0.461c-0.009,0.161-0.093,0.298-0.093,0.461c-0.001,1.955-0.675,3.849-1.91,5.365l-26.434,31.639     c-3.087,3.796-5.67,7.976-7.685,12.434H143.235c-41.701,0.047-75.494,33.84-75.541,75.541c0.011,9.267,7.52,16.776,16.787,16.787     v16.787c-18.542,0-33.574,15.031-33.574,33.574s15.031,33.574,33.574,33.574v16.787h-8.393     C73.862,361.928,71.726,362.812,70.152,364.387z M222.678,294.781l22.383,33.574H84.481c-9.271,0-16.787-7.516-16.787-16.787     s7.516-16.787,16.787-16.787h8.393H222.678z M101.268,277.994v-16.787h235.016v16.787h-41.967c-0.272,0-0.5,0.13-0.765,0.155     c-1.64,0.136-3.198,0.773-4.462,1.826c-0.436,0.354-0.833,0.752-1.188,1.188c-0.173,0.213-0.414,0.336-0.569,0.569l-26.59,39.885     l-26.59-39.886c-0.154-0.232-0.393-0.354-0.566-0.565c-1.402-1.724-3.44-2.812-5.653-3.018c-0.265-0.025-0.494-0.154-0.765-0.154     H101.268z M101.268,345.142h235.016v16.787H101.268V345.142z M276.426,328.355l22.383-33.574h54.262     c9.271,0,16.787,7.516,16.787,16.787s-7.516,16.787-16.787,16.787H276.426z M84.481,244.421     c0.038-32.433,26.321-58.716,58.754-58.754h145.598l0.025,0.004l0.027-0.004h5.432c32.433,0.038,58.716,26.321,58.754,58.754     H84.481z M84.481,403.896v-25.18h268.59v25.18c-0.015,13.9-11.28,25.165-25.18,25.18h-218.23     C95.761,429.061,84.497,417.796,84.481,403.896z M118.545,445.863h209.346c1.009,0,1.956-0.227,2.948-0.298     c1.808,0.201,3.626,0.3,5.446,0.298h50.158C305.909,501.819,199.078,501.819,118.545,445.863z M386.645,429.076H361.25     c5.552-7.223,8.577-16.07,8.609-25.18v-16.787h58.754C428.585,410.276,409.812,429.049,386.645,429.076z M428.612,261.207     h-16.787c-4.636,0-8.393,3.758-8.393,8.393s3.758,8.393,8.393,8.393h16.787v50.361h-16.787c-4.636,0-8.393,3.758-8.393,8.393     c0,4.636,3.758,8.393,8.393,8.393h16.787v25.18h-58.754c0.001-2.226-0.884-4.361-2.458-5.936     c-1.574-1.574-3.709-2.458-5.936-2.458h-8.393v-16.787c18.542,0,33.574-15.031,33.574-33.574s-15.031-33.574-33.574-33.574     v-16.787c9.267-0.011,16.776-7.52,16.787-16.787c-0.01-2.805-0.175-5.607-0.496-8.393h59.25V261.207z M428.612,219.24h-63.162     c-9.687-27.301-34.114-46.675-62.904-49.891c0.515-0.701,0.921-1.466,1.484-2.138l26.451-31.656     c3.756-4.53,5.809-10.231,5.803-16.115c0-0.163-0.084-0.3-0.092-0.461c0.008-0.161,0.092-0.298,0.092-0.461V51.371h50.361v68.07     c-0.004,5.889,2.051,11.594,5.811,16.127l26.435,31.635c6.276,7.543,9.715,17.044,9.721,26.857V219.24z M445.399,386.906V194.06     c-0.013-13.741-4.829-27.046-13.615-37.611l-26.434-31.631c-1.239-1.518-1.916-3.417-1.918-5.377V72.926     C496.491,150.997,514.688,287.136,445.399,386.906z" data-original="#000000" class="active-path" data-old_color="#ffffff" fill="#ffffff"/>
			<path d="M137.276,213.281c-3.246,3.31-3.246,8.608,0,11.918c3.291,3.291,8.627,3.291,11.917,0c3.291-3.291,3.291-8.627,0-11.917     C145.903,209.99,140.567,209.99,137.276,213.281z" data-original="#000000" class="active-path" data-old_color="#ffffff" fill="#ffffff"/>
			<path d="M197.794,203.536c-3.301-1.901-7.468-1.347-10.157,1.351c-3.246,3.31-3.246,8.608,0,11.918     c1.609,1.532,3.737,2.402,5.959,2.435c3.809,0,7.143-2.56,8.127-6.241C202.707,209.319,201.095,205.437,197.794,203.536z" data-original="#000000" class="active-path" data-old_color="#ffffff" fill="#ffffff"/>
			<path d="M248.155,211.93c-3.301-1.901-7.468-1.347-10.157,1.351c-3.246,3.31-3.246,8.608,0,11.918     c1.609,1.532,3.737,2.402,5.959,2.435c3.809,0,7.143-2.56,8.127-6.241C253.068,217.713,251.456,213.831,248.155,211.93z" data-original="#000000" class="active-path" data-old_color="#ffffff" fill="#ffffff"/>
			<path d="M298.515,203.536c-3.301-1.901-7.468-1.347-10.157,1.351c-3.246,3.31-3.246,8.608,0,11.918     c1.609,1.532,3.737,2.402,5.959,2.435c3.809,0,7.143-2.56,8.127-6.241C303.428,209.319,301.816,205.437,298.515,203.536z" data-original="#000000" class="active-path" data-old_color="#ffffff" fill="#ffffff"/>
		</g>
	</g>
</g></g> </svg>
