<svg xmlns="http://www.w3.org/2000/svg" width="238" height="87" fill="none"><g filter="url(#a)"><path fill="#000" d="M216.8 1.8c9.941 0 18 8.059 18 18v46c0 9.941-8.059 18-18 18h-197c-9.941 0-18-8.059-18-18v-46c0-9.941 8.059-18 18-18z"/><path fill="url(#b)" fill-opacity=".11" d="M216.8 1.8c9.941 0 18 8.059 18 18v46c0 9.941-8.059 18-18 18h-197c-9.941 0-18-8.059-18-18v-46c0-9.941 8.059-18 18-18z"/><path stroke="#fff" stroke-width="2" d="M216.8 1.8c9.941 0 18 8.059 18 18v46c0 9.941-8.059 18-18 18h-197c-9.941 0-18-8.059-18-18v-46c0-9.941 8.059-18 18-18z"/><path fill="#19E852" d="M216.8 78.8v2h-197v-2zm13-13v-46c0-7.18-5.82-13-13-13h-197c-7.18 0-13 5.82-13 13v46c0 7.18 5.82 13 13 13v2c-8.284 0-15-6.716-15-15v-46c0-8.284 6.716-15 15-15h197l.387.005c8.105.205 14.613 6.84 14.613 14.995v46l-.005.387c-.202 7.977-6.631 14.406-14.608 14.608l-.387.005v-2c7.18 0 13-5.82 13-13"/><path fill="#fff" d="M21.06 27.1h-1.02l.96-2.27h.65zm1.62 0h-1.02l.96-2.27h.65zm7.059-2.27v6.97h-.91v-3.16h-3.55v3.16h-.91v-6.97h.91v3.06h3.55v-3.06zm1.214 4.21q0-.84.34-1.47a2.47 2.47 0 0 1 .93-.99q.6-.35 1.33-.35.72 0 1.25.31t.79.78v-1h.92v5.48h-.92v-1.02q-.27.48-.81.8-.53.31-1.24.31-.73 0-1.32-.36a2.53 2.53 0 0 1-.93-1.01q-.34-.65-.34-1.48m4.64.01q0-.62-.25-1.08a1.7 1.7 0 0 0-.68-.7q-.42-.25-.93-.25t-.93.24-.67.7-.25 1.08q0 .63.25 1.1.25.46.67.71.42.24.93.24t.93-.24a1.8 1.8 0 0 0 .68-.71q.25-.47.25-1.09m4.397 2.84q-.63 0-1.13-.21a1.96 1.96 0 0 1-.79-.6q-.29-.39-.32-.89h.94a.93.93 0 0 0 .38.67q.35.26.91.26.52 0 .82-.23t.3-.58a.56.56 0 0 0-.32-.53q-.32-.18-.99-.35a8 8 0 0 1-1-.32 1.9 1.9 0 0 1-.66-.49q-.27-.33-.27-.86 0-.42.25-.77a1.66 1.66 0 0 1 .71-.55q.46-.21 1.05-.21.91 0 1.47.46.561.46.6 1.26h-.91a.93.93 0 0 0-.35-.69q-.309-.26-.84-.26-.489 0-.78.21a.65.65 0 0 0-.29.55q0 .27.17.45.18.17.44.28.27.1.74.23.591.16.96.32.37.15.63.46.27.31.28.81 0 .45-.25.81t-.71.57q-.45.2-1.04.2m5.611-2.85q0-.84.34-1.47.34-.64.93-.99.6-.35 1.33-.35.72 0 1.25.31t.79.78v-1h.92v5.48h-.92v-1.02q-.27.48-.81.8-.53.31-1.24.31-.73 0-1.32-.36a2.5 2.5 0 0 1-.93-1.01q-.34-.65-.34-1.48m4.64.01q0-.62-.25-1.08a1.7 1.7 0 0 0-.68-.7q-.42-.25-.93-.25t-.93.24a1.74 1.74 0 0 0-.67.7q-.25.46-.25 1.08 0 .63.25 1.1.25.46.67.71.42.24.93.24t.93-.24a1.8 1.8 0 0 0 .68-.71q.25-.47.25-1.09m7.064 2.84q-.63 0-1.13-.21a1.96 1.96 0 0 1-.79-.6q-.29-.39-.32-.89h.94a.93.93 0 0 0 .38.67q.35.26.91.26.52 0 .82-.23t.3-.58a.56.56 0 0 0-.32-.53q-.32-.18-.99-.35a8 8 0 0 1-1-.32 1.9 1.9 0 0 1-.66-.49q-.27-.33-.27-.86 0-.42.25-.77a1.66 1.66 0 0 1 .71-.55q.46-.21 1.05-.21.91 0 1.47.46t.6 1.26h-.91a.93.93 0 0 0-.35-.69q-.31-.26-.84-.26-.49 0-.78.21a.65.65 0 0 0-.29.55q0 .27.17.45.18.17.44.28.27.1.74.23.59.16.96.32.37.15.63.46.27.31.28.81 0 .45-.25.81t-.71.57q-.45.2-1.04.2m4.395-4.82v3.23q0 .4.17.57.17.16.59.16h.67v.77h-.82q-.76 0-1.14-.35t-.38-1.15v-3.23h-.71v-.75h.71v-1.38h.91v1.38h1.43v.75zm3.442.14q.24-.47.68-.73.45-.26 1.09-.26v.94h-.24q-1.53 0-1.53 1.66v2.98h-.91v-5.48h.91zm5.21 4.68q-.77 0-1.4-.35a2.54 2.54 0 0 1-.98-.99q-.35-.65-.35-1.5 0-.84.36-1.48.37-.65 1-.99.63-.35 1.41-.35t1.41.35q.63.34.99.98.37.64.37 1.49t-.38 1.5a2.6 2.6 0 0 1-1.01.99q-.64.35-1.42.35m0-.8q.49 0 .92-.23t.69-.69q.27-.46.27-1.12t-.26-1.12a1.67 1.67 0 0 0-.68-.68 1.87 1.87 0 0 0-.91-.23q-.5 0-.92.23a1.63 1.63 0 0 0-.66.68q-.25.46-.25 1.12 0 .67.24 1.13.25.46.66.69.411.22.9.22m6.677-4.87q1 0 1.62.61.62.6.62 1.74v3.23h-.9v-3.1q0-.82-.41-1.25-.41-.44-1.12-.44-.72 0-1.15.45-.42.45-.42 1.31v3.03h-.91v-5.48h.91v.78q.27-.42.73-.65.47-.23 1.03-.23m5.987.01q.71 0 1.24.31.54.31.8.78v-1h.92v5.6q0 .75-.32 1.33-.32.59-.92.92-.591.33-1.38.33-1.08 0-1.8-.51a2 2 0 0 1-.85-1.39h.9q.15.5.62.8.47.31 1.13.31.75 0 1.22-.47.48-.47.48-1.32v-1.15a2.2 2.2 0 0 1-.8.8q-.53.32-1.24.32-.73 0-1.33-.36a2.53 2.53 0 0 1-.93-1.01q-.34-.65-.34-1.48 0-.84.34-1.47a2.47 2.47 0 0 1 .93-.99q.6-.35 1.33-.35m2.04 2.82q0-.62-.25-1.08a1.7 1.7 0 0 0-.68-.7q-.42-.25-.93-.25t-.93.24-.67.7-.25 1.08q0 .63.25 1.1.25.46.67.71.42.24.93.24t.93-.24a1.8 1.8 0 0 0 .68-.71q.25-.47.25-1.09m6.033-1.72q.27-.47.8-.78.54-.32 1.25-.32.73 0 1.32.35.6.35.94.99.34.63.34 1.47 0 .83-.34 1.48a2.5 2.5 0 0 1-2.26 1.37q-.7 0-1.24-.31a2.3 2.3 0 0 1-.81-.79v3.61h-.91v-8.08h.91zm3.72 1.71q0-.62-.25-1.08a1.7 1.7 0 0 0-.68-.7q-.42-.24-.93-.24-.5 0-.93.25-.42.24-.68.71-.25.46-.25 1.07 0 .62.25 1.09.26.46.68.71.43.24.93.24.51 0 .93-.24a1.8 1.8 0 0 0 .68-.71q.25-.47.25-1.1m3.038-1.83q.24-.47.68-.73.45-.26 1.09-.26v.94h-.24q-1.53 0-1.53 1.66v2.98h-.91v-5.48h.91zm5.211 4.68q-.77 0-1.4-.35a2.54 2.54 0 0 1-.98-.99q-.35-.65-.35-1.5 0-.84.36-1.48.37-.65 1-.99.63-.35 1.41-.35t1.41.35q.63.34.99.98.37.64.37 1.49t-.38 1.5a2.6 2.6 0 0 1-1.01.99q-.64.35-1.42.35m0-.8q.49 0 .92-.23.429-.23.69-.69.27-.46.27-1.12t-.26-1.12a1.67 1.67 0 0 0-.68-.68 1.87 1.87 0 0 0-.91-.23q-.5 0-.92.23a1.6 1.6 0 0 0-.66.68q-.25.46-.25 1.12 0 .67.24 1.13.249.46.66.69.41.22.9.22m3.666-2.05q0-.84.34-1.47.34-.64.93-.99.6-.35 1.34-.35.64 0 1.19.3.55.29.84.77v-2.9h.92v7.4h-.92v-1.03q-.27.49-.8.81-.53.31-1.24.31-.73 0-1.33-.36a2.53 2.53 0 0 1-.93-1.01q-.34-.65-.34-1.48m4.64.01q0-.62-.25-1.08a1.7 1.7 0 0 0-.68-.7q-.42-.25-.93-.25t-.93.24-.67.7-.25 1.08q0 .63.25 1.1.25.46.67.71.42.24.93.24t.93-.24a1.8 1.8 0 0 0 .68-.71q.25-.47.25-1.09m7.318-2.73v5.48h-.91v-.81q-.26.42-.73.66-.46.23-1.02.23-.64 0-1.15-.26a2 2 0 0 1-.81-.8q-.29-.53-.29-1.29v-3.21h.9v3.09q0 .81.41 1.25.41.43 1.12.43.73 0 1.15-.45t.42-1.31v-3.01zm1.196 2.73q0-.85.34-1.48a2.45 2.45 0 0 1 .94-.99q.61-.35 1.39-.35 1.01 0 1.66.49.66.49.87 1.36h-.98a1.4 1.4 0 0 0-.55-.79q-.4-.29-1-.29-.78 0-1.26.54-.48.53-.48 1.51 0 .99.48 1.53t1.26.54q.6 0 1-.28t.55-.8h.98a2.43 2.43 0 0 1-.88 1.35q-.66.5-1.65.5-.78 0-1.39-.35a2.45 2.45 0 0 1-.94-.99q-.34-.64-.34-1.5m7.525-1.98v3.23q0 .4.17.57.17.16.59.16h.67v.77h-.82q-.76 0-1.14-.35t-.38-1.15v-3.23h-.71v-.75h.71v-1.38h.91v1.38h1.43v.75zm5.688-1.64a.6.6 0 0 1-.61-.62q0-.26.17-.44.18-.18.44-.18t.43.18q.18.18.18.44t-.18.44a.56.56 0 0 1-.43.18m.45 7.56q0 .73-.37 1.07-.369.34-1.08.34h-.53v-.77h.38q.38 0 .53-.15.16-.15.16-.51v-6.65h.91zm6.401-6.67v5.48h-.91v-.81q-.26.42-.73.66-.46.23-1.02.23-.64 0-1.15-.26a2 2 0 0 1-.81-.8q-.29-.53-.29-1.29v-3.21h.9v3.09q0 .81.41 1.25.41.43 1.12.43.73 0 1.15-.45t.42-1.31v-3.01zm1.196 2.72q0-.84.34-1.47.34-.64.93-.99.6-.35 1.34-.35.64 0 1.19.3.55.29.84.77v-2.9h.92v7.4h-.92v-1.03a2.16 2.16 0 0 1-.8.81q-.53.31-1.24.31-.73 0-1.33-.36a2.53 2.53 0 0 1-.93-1.01 3.15 3.15 0 0 1-.34-1.48m4.64.01q0-.62-.25-1.08a1.7 1.7 0 0 0-.68-.7q-.42-.25-.93-.25t-.93.24-.67.7-.25 1.08q0 .63.25 1.1.25.46.67.71.42.24.93.24t.93-.24q.43-.25.68-.71.25-.47.25-1.09m4.718-2.82q.71 0 1.24.31.54.31.8.78v-1h.92v5.6q0 .75-.32 1.33-.32.59-.92.92-.59.33-1.38.33-1.08 0-1.8-.51a2 2 0 0 1-.85-1.39h.9q.15.5.62.8.47.31 1.13.31.75 0 1.22-.47.48-.47.48-1.32v-1.15q-.27.48-.8.8t-1.24.32q-.73 0-1.33-.36a2.53 2.53 0 0 1-.93-1.01q-.34-.65-.34-1.48 0-.84.34-1.47.34-.64.93-.99.6-.35 1.33-.35m2.04 2.82q0-.62-.25-1.08a1.7 1.7 0 0 0-.68-.7q-.42-.25-.93-.25t-.93.24-.67.7-.25 1.08q0 .63.25 1.1.25.46.67.71.42.24.93.24t.93-.24a1.8 1.8 0 0 0 .68-.71q.25-.47.25-1.09m7.458-.2q0 .26-.03.55h-4.38q.05.81.55 1.27.51.45 1.23.45.59 0 .98-.27.4-.28.56-.74h.98q-.22.79-.88 1.29-.66.49-1.64.49-.78 0-1.4-.35a2.5 2.5 0 0 1-.96-.99q-.35-.65-.35-1.5t.34-1.49.95-.98q.62-.35 1.42-.35.78 0 1.38.34t.92.94q.33.59.33 1.34m-.94-.19q0-.52-.23-.89a1.46 1.46 0 0 0-.63-.57q-.39-.2-.87-.2-.69 0-1.18.44-.48.44-.55 1.22zm8.731-2.44q.64 0 1.14.27.5.26.79.79t.29 1.29v3.23h-.9v-3.1q0-.82-.41-1.25-.4-.44-1.09-.44-.71 0-1.13.46-.42.45-.42 1.31v3.02h-.9v-3.1q0-.82-.41-1.25-.4-.44-1.09-.44-.71 0-1.13.46-.42.45-.42 1.31v3.02h-.91v-5.48h.91v.79q.27-.43.72-.66.46-.23 1.01-.23.69 0 1.22.31t.79.91q.23-.58.76-.9a2.24 2.24 0 0 1 1.18-.32m8.713 2.63q0 .26-.03.55h-4.38q.05.81.55 1.27.51.45 1.23.45.59 0 .98-.27.4-.28.56-.74h.98q-.22.79-.88 1.29-.66.49-1.64.49-.78 0-1.4-.35a2.5 2.5 0 0 1-.96-.99q-.35-.65-.35-1.5t.34-1.49.95-.98q.62-.35 1.42-.35.78 0 1.38.34t.92.94q.33.59.33 1.34m-.94-.19q0-.52-.23-.89a1.46 1.46 0 0 0-.63-.57q-.39-.2-.87-.2-.69 0-1.18.44-.48.44-.55 1.22zm4.811-2.44q1 0 1.62.61.62.6.62 1.74v3.23h-.9v-3.1q0-.82-.41-1.25-.41-.44-1.12-.44-.72 0-1.15.45-.42.45-.42 1.31v3.03h-.91v-5.48h.91v.78q.27-.42.73-.65.47-.23 1.03-.23m4.836.85v3.23q0 .4.17.57.17.16.59.16h.67v.77h-.82q-.759 0-1.14-.35t-.38-1.15v-3.23h-.71v-.75h.71v-1.38h.91v1.38h1.43v.75zm3.473 3.47-1.12 2.69h-.61l.73-2.69zm5.968-4.31q.71 0 1.24.31.54.31.8.78v-1h.92v5.6q0 .75-.32 1.33-.32.59-.92.92-.59.33-1.38.33-1.08 0-1.8-.51a2 2 0 0 1-.85-1.39h.9q.15.5.62.8.47.31 1.13.31.75 0 1.22-.47.48-.47.48-1.32v-1.15q-.27.48-.8.8t-1.24.32q-.73 0-1.33-.36a2.53 2.53 0 0 1-.93-1.01 3.15 3.15 0 0 1-.34-1.48q0-.84.34-1.47.34-.64.93-.99.6-.35 1.33-.35m2.04 2.82q0-.62-.25-1.08a1.7 1.7 0 0 0-.68-.7q-.42-.25-.93-.25t-.93.24-.67.7-.25 1.08q0 .63.25 1.1.25.46.67.71.42.24.93.24t.93-.24q.43-.25.68-.71.25-.47.25-1.09m7.458-.2q0 .26-.03.55h-4.38q.05.81.55 1.27.51.45 1.23.45.59 0 .98-.27.4-.28.56-.74h.98q-.22.79-.88 1.29-.66.49-1.64.49a2.8 2.8 0 0 1-1.4-.35 2.5 2.5 0 0 1-.96-.99q-.35-.65-.35-1.5t.34-1.49a2.37 2.37 0 0 1 .95-.98q.62-.35 1.42-.35.78 0 1.38.34t.92.94q.33.59.33 1.34m-.94-.19q0-.52-.23-.89a1.44 1.44 0 0 0-.63-.57q-.39-.2-.87-.2-.69 0-1.18.44-.48.44-.55 1.22zm3.251-1.59v3.23q0 .4.17.57.17.16.59.16h.67v.77h-.82q-.759 0-1.14-.35t-.38-1.15v-3.23h-.71v-.75h.71v-1.38h.91v1.38h1.43v.75zm4.473 4.82q-.63 0-1.13-.21a1.96 1.96 0 0 1-.79-.6q-.29-.39-.32-.89h.94a.93.93 0 0 0 .38.67q.35.26.91.26.52 0 .82-.23t.3-.58a.56.56 0 0 0-.32-.53q-.32-.18-.99-.35a8 8 0 0 1-1-.32 1.9 1.9 0 0 1-.66-.49q-.27-.33-.27-.86 0-.42.25-.77a1.66 1.66 0 0 1 .71-.55q.46-.21 1.05-.21.91 0 1.47.46t.6 1.26h-.91a.94.94 0 0 0-.35-.69q-.31-.26-.84-.26-.49 0-.78.21a.65.65 0 0 0-.29.55q0 .27.17.45.18.17.44.28.27.1.74.23.59.16.96.32.37.15.63.46.27.31.28.81 0 .45-.25.81t-.71.57q-.45.2-1.04.2M21.68 42.07v3.23q0 .4.17.57.17.16.59.16h.67v.77h-.82q-.76 0-1.14-.35t-.38-1.15v-3.23h-.71v-.75h.71v-1.38h.91v1.38h1.43v.75zm5.253-.85q.62 0 1.12.27.5.26.78.79.29.53.29 1.29v3.23h-.9v-3.1q0-.82-.41-1.25-.41-.44-1.12-.44-.72 0-1.15.45-.42.45-.42 1.31v3.03h-.91v-7.4h.91v2.7q.27-.42.74-.65.48-.23 1.07-.23m4.146-.79a.6.6 0 0 1-.44-.18.6.6 0 0 1-.18-.44q0-.26.18-.44t.44-.18q.25 0 .42.18.18.18.18.44t-.18.44a.56.56 0 0 1-.42.18m.44.89v5.48h-.91v-5.48zm4.221-.1q1 0 1.62.61.62.6.62 1.74v3.23h-.9v-3.1q0-.82-.41-1.25-.41-.44-1.12-.44-.72 0-1.15.45-.42.45-.42 1.31v3.03h-.91v-5.48h.91v.78q.27-.42.73-.65.47-.23 1.03-.23m5.986.01q.71 0 1.24.31.54.31.8.78v-1h.92v5.6q0 .75-.32 1.33-.32.59-.92.92-.59.33-1.38.33-1.08 0-1.8-.51a2 2 0 0 1-.85-1.39h.9q.15.5.62.8.47.31 1.13.31.75 0 1.22-.47.48-.47.48-1.32v-1.15a2.2 2.2 0 0 1-.8.8q-.53.32-1.24.32-.73 0-1.33-.36a2.5 2.5 0 0 1-.93-1.01q-.34-.65-.34-1.48 0-.84.34-1.47.34-.64.93-.99.6-.35 1.33-.35m2.04 2.82q0-.62-.25-1.08a1.7 1.7 0 0 0-.68-.7q-.42-.25-.93-.25t-.93.24a1.74 1.74 0 0 0-.67.7q-.25.46-.25 1.08 0 .63.25 1.1.25.46.67.71.42.24.93.24t.93-.24a1.8 1.8 0 0 0 .68-.71q.25-.47.25-1.09m4.398 2.84q-.63 0-1.13-.21a1.96 1.96 0 0 1-.79-.6q-.29-.39-.32-.89h.94a.93.93 0 0 0 .38.67q.35.26.91.26.52 0 .82-.23t.3-.58a.56.56 0 0 0-.32-.53q-.32-.18-.99-.35a8 8 0 0 1-1-.32 1.9 1.9 0 0 1-.66-.49q-.27-.33-.27-.86 0-.42.25-.77a1.66 1.66 0 0 1 .71-.55q.46-.21 1.05-.21.91 0 1.47.46.561.46.6 1.26h-.91a.93.93 0 0 0-.35-.69q-.309-.26-.84-.26-.489 0-.78.21a.65.65 0 0 0-.29.55q0 .27.17.45.18.17.44.28.27.1.74.23.591.16.96.32.37.15.63.46.27.31.28.81 0 .45-.25.81t-.71.57q-.45.2-1.04.2m5.61-2.85q0-.84.34-1.47a2.47 2.47 0 0 1 .93-.99q.601-.35 1.34-.35.641 0 1.19.3.552.29.84.77v-2.9h.92v7.4h-.92v-1.03q-.27.49-.8.81-.529.31-1.24.31-.73 0-1.33-.36a2.53 2.53 0 0 1-.93-1.01q-.34-.65-.34-1.48m4.64.01q.001-.62-.25-1.08a1.7 1.7 0 0 0-.68-.7q-.42-.25-.93-.25t-.93.24q-.419.24-.67.7-.25.46-.25 1.08 0 .63.25 1.1.251.46.67.71.42.24.93.24t.93-.24a1.8 1.8 0 0 0 .68-.71q.251-.47.25-1.09m4.849 2.84q-.77 0-1.4-.35a2.54 2.54 0 0 1-.98-.99q-.35-.65-.35-1.5 0-.84.36-1.48.37-.65 1-.99.63-.35 1.41-.35t1.41.35q.63.34.99.98.37.64.37 1.49t-.38 1.5a2.57 2.57 0 0 1-1.01.99q-.64.35-1.42.35m0-.8q.49 0 .92-.23.429-.23.69-.69.27-.46.27-1.12t-.26-1.12a1.67 1.67 0 0 0-.68-.68 1.87 1.87 0 0 0-.91-.23q-.5 0-.92.23a1.63 1.63 0 0 0-.66.68q-.25.46-.25 1.12 0 .67.24 1.13.249.46.66.69.41.22.9.22m6.676-4.87q1 0 1.62.61.62.6.62 1.74v3.23h-.9v-3.1q0-.82-.41-1.25-.41-.44-1.12-.44-.72 0-1.15.45-.42.45-.42 1.31v3.03h-.91v-5.48h.91v.78q.27-.42.73-.65.47-.23 1.03-.23m8.727 2.63q0 .26-.03.55h-4.38q.05.81.55 1.27.51.45 1.23.45.59 0 .98-.27.4-.28.56-.74h.98a2.38 2.38 0 0 1-.88 1.29q-.66.49-1.64.49-.78 0-1.4-.35a2.5 2.5 0 0 1-.96-.99q-.35-.65-.35-1.5t.34-1.49.95-.98q.62-.35 1.42-.35.78 0 1.38.34t.92.94q.33.59.33 1.34m-.94-.19q0-.52-.23-.89a1.45 1.45 0 0 0-.63-.57q-.39-.2-.87-.2-.69 0-1.18.44-.48.44-.55 1.22zm4.467.38q0-.84.34-1.47.34-.64.93-.99.6-.35 1.33-.35.72 0 1.25.31t.79.78v-1h.92v5.48h-.92v-1.02q-.27.48-.81.8-.53.31-1.24.31-.73 0-1.32-.36a2.5 2.5 0 0 1-.93-1.01q-.34-.65-.34-1.48m4.64.01q0-.62-.25-1.08a1.7 1.7 0 0 0-.68-.7q-.42-.25-.93-.25t-.93.24a1.74 1.74 0 0 0-.67.7q-.25.46-.25 1.08 0 .63.25 1.1.25.46.67.71.42.24.93.24t.93-.24a1.8 1.8 0 0 0 .68-.71q.25-.47.25-1.09m5.128-2.83q.999 0 1.62.61.62.6.62 1.74v3.23h-.9v-3.1q0-.82-.41-1.25-.41-.44-1.12-.44-.72 0-1.15.45-.42.45-.42 1.31v3.03h-.91v-5.48h.91v.78q.27-.42.73-.65.47-.23 1.03-.23m3.386 2.82q0-.84.34-1.47.34-.64.93-.99.6-.35 1.34-.35.64 0 1.19.3.55.29.84.77v-2.9h.92v7.4h-.92v-1.03q-.27.49-.8.81-.53.31-1.24.31-.73 0-1.33-.36a2.5 2.5 0 0 1-.93-1.01q-.34-.65-.34-1.48m4.64.01q0-.62-.25-1.08a1.7 1.7 0 0 0-.68-.7q-.42-.25-.93-.25t-.93.24a1.74 1.74 0 0 0-.67.7q-.25.46-.25 1.08 0 .63.25 1.1.25.46.67.71.42.24.93.24t.93-.24a1.8 1.8 0 0 0 .68-.71q.25-.47.25-1.09m4.784-.01q0-.84.34-1.47.34-.64.93-.99.6-.35 1.34-.35.64 0 1.19.3.55.29.84.77v-2.9h.92v7.4h-.92v-1.03q-.27.49-.8.81-.53.31-1.24.31-.73 0-1.33-.36a2.53 2.53 0 0 1-.93-1.01q-.34-.65-.34-1.48m4.64.01q0-.62-.25-1.08a1.7 1.7 0 0 0-.68-.7q-.42-.25-.93-.25t-.93.24-.67.7-.25 1.08q0 .63.25 1.1.25.46.67.71.42.24.93.24t.93-.24a1.8 1.8 0 0 0 .68-.71q.25-.47.25-1.09m7.458-.2q0 .26-.03.55h-4.38q.05.81.55 1.27.51.45 1.23.45.59 0 .98-.27.4-.28.56-.74h.98q-.22.79-.88 1.29-.66.49-1.64.49-.78 0-1.4-.35a2.5 2.5 0 0 1-.96-.99q-.35-.65-.35-1.5t.34-1.49.95-.98q.62-.35 1.42-.35.78 0 1.38.34t.92.94q.33.59.33 1.34m-.94-.19q0-.52-.23-.89a1.46 1.46 0 0 0-.63-.57q-.39-.2-.87-.2-.69 0-1.18.44-.48.44-.55 1.22zm3.051-4.26v7.4h-.91v-7.4zm2.021 1.03a.6.6 0 0 1-.44-.18.6.6 0 0 1-.18-.44q0-.26.18-.44t.44-.18q.25 0 .42.18.18.18.18.44t-.18.44a.55.55 0 0 1-.42.18m.44.89v5.48h-.91v-5.48zm3.591 4.64 1.7-4.64h.97l-2.15 5.48h-1.06l-2.15-5.48h.98zm8.565-2.11q0 .26-.03.55h-4.38q.05.81.55 1.27.51.45 1.23.45.59 0 .98-.27.4-.28.56-.74h.98q-.22.79-.88 1.29-.66.49-1.64.49a2.8 2.8 0 0 1-1.4-.35 2.5 2.5 0 0 1-.96-.99q-.35-.65-.35-1.5t.34-1.49a2.37 2.37 0 0 1 .95-.98q.62-.35 1.42-.35.78 0 1.38.34t.92.94q.33.59.33 1.34m-.94-.19q0-.52-.23-.89a1.44 1.44 0 0 0-.63-.57q-.39-.2-.87-.2-.69 0-1.18.44-.48.44-.55 1.22zm3.052-1.45a1.75 1.75 0 0 1 .68-.73q.45-.26 1.09-.26v.94h-.24q-1.53 0-1.53 1.66v2.98h-.91v-5.48h.91zm4.76 4.68q-.63 0-1.13-.21a1.96 1.96 0 0 1-.79-.6q-.29-.39-.32-.89h.94a.93.93 0 0 0 .38.67q.35.26.91.26.52 0 .82-.23t.3-.58a.56.56 0 0 0-.32-.53q-.32-.18-.99-.35a8 8 0 0 1-1-.32 1.9 1.9 0 0 1-.66-.49q-.27-.33-.27-.86 0-.42.25-.77a1.66 1.66 0 0 1 .71-.55q.46-.21 1.05-.21.91 0 1.47.46t.6 1.26h-.91a.94.94 0 0 0-.35-.69q-.31-.26-.84-.26-.49 0-.78.21a.65.65 0 0 0-.29.55q0 .27.17.45.18.17.44.28.27.1.74.23.59.16.96.32.37.15.63.46.27.31.28.81 0 .45-.25.81t-.71.57q-.45.2-1.04.2m6.861-4.68a1.75 1.75 0 0 1 .68-.73q.45-.26 1.09-.26v.94h-.24q-1.53 0-1.53 1.66v2.98h-.91v-5.48h.91zm7.82 1.64q0 .26-.03.55h-4.38q.05.81.55 1.27.51.45 1.23.45.59 0 .98-.27.4-.28.56-.74h.98q-.22.79-.88 1.29-.66.49-1.64.49-.78 0-1.4-.35a2.5 2.5 0 0 1-.96-.99q-.35-.65-.35-1.5t.34-1.49.95-.98q.62-.35 1.42-.35.78 0 1.38.34t.92.94q.33.59.33 1.34m-.94-.19q0-.52-.23-.89a1.44 1.44 0 0 0-.63-.57q-.39-.2-.87-.2-.69 0-1.18.44-.48.44-.55 1.22zm1.801.38q0-.84.34-1.47.34-.64.93-.99.6-.35 1.33-.35.72 0 1.25.31t.79.78v-1h.92v5.48h-.92v-1.02q-.27.48-.81.8-.53.31-1.24.31-.729 0-1.32-.36a2.53 2.53 0 0 1-.93-1.01 3.15 3.15 0 0 1-.34-1.48m4.64.01q0-.62-.25-1.08a1.7 1.7 0 0 0-.68-.7q-.42-.25-.93-.25t-.93.24-.67.7-.25 1.08q0 .63.25 1.1.25.46.67.71.42.24.93.24t.93-.24q.43-.25.68-.71.25-.47.25-1.09m3.368-4.65v7.4h-.91v-7.4zm5.127 2.81q.24-.47.68-.73.45-.26 1.09-.26v.94h-.24q-1.53 0-1.53 1.66v2.98h-.91v-5.48h.91zm7.82 1.64q0 .26-.03.55h-4.38q.05.81.55 1.27.51.45 1.23.45.59 0 .98-.27.4-.28.56-.74h.98q-.22.79-.88 1.29-.66.49-1.64.49a2.8 2.8 0 0 1-1.4-.35 2.5 2.5 0 0 1-.96-.99q-.35-.65-.35-1.5t.34-1.49a2.37 2.37 0 0 1 .95-.98q.62-.35 1.42-.35.78 0 1.38.34t.92.94q.33.59.33 1.34m-.94-.19q0-.52-.23-.89a1.44 1.44 0 0 0-.63-.57q-.39-.2-.87-.2-.69 0-1.18.44-.48.44-.55 1.22zm4.082 3.23q-.63 0-1.13-.21a1.96 1.96 0 0 1-.79-.6q-.29-.39-.32-.89h.94a.92.92 0 0 0 .38.67q.35.26.91.26.52 0 .82-.23t.3-.58a.56.56 0 0 0-.32-.53q-.321-.18-.99-.35a8 8 0 0 1-1-.32 1.9 1.9 0 0 1-.66-.49q-.27-.33-.27-.86 0-.42.25-.77t.71-.55q.459-.21 1.05-.21.909 0 1.47.46t.6 1.26h-.91a.94.94 0 0 0-.35-.69q-.31-.26-.84-.26-.49 0-.78.21a.65.65 0 0 0-.29.55q0 .27.17.45.18.17.44.28.27.1.74.23.59.16.96.32.369.15.63.46.27.31.28.81 0 .45-.25.81t-.71.57q-.45.2-1.04.2m8.144-5.57v5.48h-.91v-.81q-.26.42-.73.66-.459.23-1.02.23-.64 0-1.15-.26a2 2 0 0 1-.81-.8q-.29-.53-.29-1.29v-3.21h.9v3.09q0 .81.41 1.25.41.43 1.12.43.73 0 1.15-.45t.42-1.31v-3.01zm2.447-1.92v7.4h-.91v-7.4zm2.661 2.67v3.23q0 .4.17.57.17.16.59.16h.67v.77h-.82q-.76 0-1.14-.35t-.38-1.15v-3.23h-.71v-.75h.71v-1.38h.91v1.38h1.43v.75zm4.472 4.82q-.63 0-1.13-.21a2 2 0 0 1-.79-.6q-.29-.39-.32-.89h.94a.93.93 0 0 0 .38.67q.35.26.91.26.52 0 .82-.23t.3-.58a.56.56 0 0 0-.32-.53q-.32-.18-.99-.35a8 8 0 0 1-1-.32 1.9 1.9 0 0 1-.66-.49q-.27-.33-.27-.86 0-.42.25-.77t.71-.55q.46-.21 1.05-.21.91 0 1.47.46.561.46.6 1.26h-.91a.93.93 0 0 0-.35-.69q-.309-.26-.84-.26-.489 0-.78.21a.65.65 0 0 0-.29.55q0 .27.17.45.18.17.44.28.27.1.74.23.591.16.96.32.37.15.63.46.27.31.28.81 0 .45-.25.81a1.7 1.7 0 0 1-.71.57q-.45.2-1.04.2m3.425-7.06h1.01l-.96 2.27h-.64zm1.62 0h1.01l-.96 2.27h-.65z"/><path fill="#19E852" d="M25.288 56.956V61.8h-.637v-3.612l-1.61 3.612h-.448l-1.617-3.619V61.8h-.637v-4.844h.686l1.792 4.004 1.792-4.004zm.842 2.912q0-.588.238-1.029.238-.448.651-.693.42-.245.931-.245.504 0 .875.217.372.218.553.546v-.7h.644V61.8h-.644v-.714q-.189.335-.567.56a1.7 1.7 0 0 1-.868.217q-.51 0-.924-.252a1.77 1.77 0 0 1-.65-.707 2.2 2.2 0 0 1-.239-1.036m3.248.007q0-.434-.175-.756a1.2 1.2 0 0 0-.476-.49 1.25 1.25 0 0 0-.65-.175q-.358 0-.652.168a1.2 1.2 0 0 0-.469.49 1.56 1.56 0 0 0-.175.756q0 .44.175.77.175.322.47.497.293.168.65.168t.651-.168q.302-.175.476-.497a1.6 1.6 0 0 0 .175-.763m2.498-1.386v2.261q0 .28.119.399.12.112.413.112h.469v.539h-.574q-.532 0-.798-.245-.267-.245-.266-.805v-2.261h-.497v-.525h.497v-.966h.637v.966h1v.525zm2.41-.525V61.8h-.637v-3.836zm.364-1.085-1.491.798v-.476l1.49-.875zm.483 2.989q0-.588.238-1.029.239-.448.651-.693.42-.245.931-.245.504 0 .875.217.371.218.553.546v-.7h.644V61.8h-.644v-.714q-.189.335-.567.56a1.7 1.7 0 0 1-.868.217q-.51 0-.924-.252a1.77 1.77 0 0 1-.65-.707 2.2 2.2 0 0 1-.239-1.036m3.248.007q0-.434-.175-.756a1.2 1.2 0 0 0-.476-.49 1.25 1.25 0 0 0-.65-.175q-.358 0-.652.168a1.2 1.2 0 0 0-.469.49 1.56 1.56 0 0 0-.175.756q0 .44.175.77.175.322.47.497.293.168.65.168t.651-.168q.301-.175.476-.497a1.6 1.6 0 0 0 .175-.763m3.079 1.988q-.441 0-.791-.147a1.4 1.4 0 0 1-.553-.42 1.14 1.14 0 0 1-.224-.623h.658a.65.65 0 0 0 .266.469q.244.182.637.182.363 0 .574-.161a.49.49 0 0 0 .21-.406.39.39 0 0 0-.224-.371q-.224-.126-.693-.245a6 6 0 0 1-.7-.224 1.3 1.3 0 0 1-.462-.343q-.19-.231-.19-.602 0-.294.176-.539.174-.245.497-.385.322-.147.735-.147.636 0 1.029.322.392.323.42.882h-.637a.65.65 0 0 0-.245-.483q-.218-.182-.588-.182-.343 0-.546.147a.45.45 0 0 0-.203.385q0 .189.119.315.126.12.308.196.188.07.518.161.413.113.672.224.259.105.44.322.19.218.197.567 0 .315-.175.567a1.2 1.2 0 0 1-.497.399q-.315.14-.728.14m6.608-2.576q.267.042.483.217.224.175.35.434.133.26.133.553 0 .37-.189.672-.189.294-.553.469-.357.168-.847.168h-1.82v-4.879h1.75q.497 0 .847.168.35.16.525.441.175.28.175.63 0 .435-.238.721a1.3 1.3 0 0 1-.616.406m-1.806-.259h1.071q.448 0 .693-.21t.245-.581-.245-.581-.707-.21h-1.057zm1.127 2.247q.476 0 .742-.224.267-.225.266-.623 0-.405-.28-.637-.28-.238-.749-.238h-1.106v1.722zm2.291-1.407q0-.588.238-1.029.238-.448.651-.693.42-.245.931-.245.504 0 .875.217.371.218.553.546v-.7h.644V61.8h-.644v-.714q-.189.335-.567.56a1.7 1.7 0 0 1-.868.217q-.51 0-.924-.252a1.77 1.77 0 0 1-.65-.707 2.2 2.2 0 0 1-.239-1.036m3.248.007q0-.434-.175-.756a1.2 1.2 0 0 0-.476-.49 1.25 1.25 0 0 0-.65-.175q-.358 0-.652.168a1.2 1.2 0 0 0-.469.49 1.56 1.56 0 0 0-.175.756q0 .44.175.77.175.322.47.497.293.168.65.168t.651-.168q.301-.175.476-.497a1.6 1.6 0 0 0 .175-.763m2.498-1.386v2.261q0 .28.119.399.119.112.413.112h.469v.539h-.574q-.532 0-.798-.245t-.266-.805v-2.261h-.497v-.525h.497v-.966h.637v.966h1v.525zm2.55 0v2.261q0 .28.118.399.12.112.413.112h.47v.539h-.575q-.531 0-.798-.245-.266-.245-.266-.805v-2.261h-.497v-.525h.497v-.966h.637v.966h1.001v.525zm3.445 3.374q-.54 0-.98-.245a1.8 1.8 0 0 1-.686-.693 2.2 2.2 0 0 1-.245-1.05q0-.588.252-1.036.26-.454.7-.693.441-.245.987-.245t.987.245q.441.238.693.686.26.448.26 1.043 0 .596-.267 1.05-.258.449-.707.693-.448.245-.994.245m0-.56q.344 0 .644-.161.3-.16.483-.483.19-.322.19-.784 0-.463-.183-.784a1.17 1.17 0 0 0-.476-.476 1.3 1.3 0 0 0-.637-.161q-.35 0-.644.161a1.14 1.14 0 0 0-.462.476 1.6 1.6 0 0 0-.175.784q0 .469.168.791.175.322.462.483.288.154.63.154m3.442-4.683v5.18h-.637v-5.18zm1.722 0v5.18h-.637v-5.18zm.848 3.248q0-.588.238-1.029.239-.448.651-.693.42-.245.931-.245.504 0 .875.217.371.218.553.546v-.7h.644V61.8h-.644v-.714q-.189.335-.567.56a1.7 1.7 0 0 1-.868.217 1.74 1.74 0 0 1-.924-.252 1.77 1.77 0 0 1-.651-.707 2.2 2.2 0 0 1-.238-1.036m3.248.007q0-.434-.175-.756a1.2 1.2 0 0 0-.476-.49 1.25 1.25 0 0 0-.651-.175q-.357 0-.651.168a1.2 1.2 0 0 0-.469.49 1.56 1.56 0 0 0-.175.756q0 .44.175.77.175.322.469.497.294.168.651.168t.651-.168q.301-.175.476-.497a1.6 1.6 0 0 0 .175-.763"/><path fill="#CECECE" d="M74.03 59.357q0-.714.322-1.281a2.34 2.34 0 0 1 .875-.896 2.44 2.44 0 0 1 1.239-.322q.798 0 1.393.385t.868 1.092h-.763a1.52 1.52 0 0 0-.588-.679q-.379-.238-.91-.238-.512 0-.917.238a1.66 1.66 0 0 0-.637.679q-.231.434-.231 1.022 0 .58.23 1.022.232.434.638.672.405.238.917.238.531 0 .91-.231.384-.238.588-.679h.763a2.2 2.2 0 0 1-.868 1.085q-.595.378-1.393.378-.68 0-1.24-.315a2.35 2.35 0 0 1-.874-.889 2.55 2.55 0 0 1-.322-1.281m6.282-1.918v1.631h1.778v.525h-1.778v1.68H82.3v.525h-2.625v-4.886H82.3v.525zm5.164 4.41q-.68 0-1.24-.315a2.4 2.4 0 0 1-.888-.889 2.6 2.6 0 0 1-.322-1.288q0-.714.322-1.281.33-.574.889-.889a2.44 2.44 0 0 1 1.239-.322q.686 0 1.246.322.56.315.882.882t.322 1.288-.322 1.288a2.34 2.34 0 0 1-.882.889q-.56.315-1.246.315m0-.553q.51 0 .917-.238.413-.238.644-.679.237-.441.238-1.022 0-.588-.238-1.022a1.66 1.66 0 0 0-.637-.679 1.8 1.8 0 0 0-.924-.238q-.518 0-.924.238t-.644.679q-.231.434-.231 1.022 0 .58.23 1.022.24.44.645.679.413.238.924.238m8.657-3.983q.777 0 1.35.294.576.294.883.826.308.525.308 1.218 0 .553-.182 1.064a2 2 0 0 1-.532.819q-.343.315-.805.315-.35 0-.54-.175a.7.7 0 0 1-.216-.476q-.218.301-.553.476-.33.175-.7.175-.532 0-.84-.322-.3-.33-.301-.882 0-.525.217-.98.225-.455.616-.728.392-.28.889-.28.665 0 .896.504l.077-.434h.553l-.35 2.023a1.6 1.6 0 0 0-.021.245q0 .42.37.42.282 0 .484-.266.21-.266.315-.665.105-.406.105-.798 0-.917-.553-1.421-.546-.504-1.547-.504-.833 0-1.505.406a2.8 2.8 0 0 0-1.043 1.099 3.2 3.2 0 0 0-.378 1.547q-.007.924.553 1.421.56.504 1.554.504.658 0 1.162-.238l.084.434a3.5 3.5 0 0 1-1.372.259q-.75 0-1.323-.287a2.06 2.06 0 0 1-.882-.812q-.308-.525-.308-1.225 0-.987.455-1.799a3.34 3.34 0 0 1 1.26-1.288 3.57 3.57 0 0 1 1.82-.469m-.798 4.039q.316 0 .58-.182a1.3 1.3 0 0 0 .42-.504 1.6 1.6 0 0 0 .155-.7q0-.364-.203-.588-.195-.231-.56-.231a.94.94 0 0 0-.595.203q-.252.196-.392.525-.14.323-.14.672 0 .37.189.588t.546.217m9.515-3.003q0 .609-.42 1.015-.413.399-1.267.399h-.938V61.8h-.637v-4.879h1.575q.826 0 1.253.399.434.399.434 1.029m-1.687.889q.532 0 .784-.231.252-.23.252-.658 0-.903-1.036-.903h-.938v1.792zm4.152 2.625q-.54 0-.98-.245a1.8 1.8 0 0 1-.686-.693 2.2 2.2 0 0 1-.245-1.05q0-.588.252-1.036a1.75 1.75 0 0 1 .7-.693q.441-.245.987-.245t.987.245q.441.238.693.686.258.448.259 1.043 0 .596-.266 1.05-.26.449-.707.693-.448.245-.994.245m0-.56q.342 0 .644-.161.3-.16.483-.483.189-.322.189-.784 0-.463-.182-.784a1.17 1.17 0 0 0-.476-.476 1.3 1.3 0 0 0-.637-.161q-.35 0-.644.161a1.13 1.13 0 0 0-.462.476q-.175.322-.175.784 0 .469.168.791.174.322.462.483.287.154.63.154m7.914-3.339-1.197 3.836h-.658l-.924-3.045-.924 3.045h-.658l-1.204-3.836h.651l.882 3.22.952-3.22h.651l.931 3.227.868-3.227zm4.132 1.771q0 .182-.021.385h-3.066q.036.567.385.889.357.315.861.315.413 0 .686-.189.28-.195.392-.518h.686q-.154.554-.616.903-.462.343-1.148.343a1.96 1.96 0 0 1-.98-.245 1.76 1.76 0 0 1-.672-.693 2.2 2.2 0 0 1-.245-1.05q0-.595.238-1.043a1.66 1.66 0 0 1 .665-.686 2 2 0 0 1 .994-.245q.546 0 .966.238t.644.658q.231.413.231.938m-.658-.133q0-.364-.161-.623a1 1 0 0 0-.441-.399 1.3 1.3 0 0 0-.609-.14q-.483 0-.826.308-.336.308-.385.854zm2.136-1.015q.168-.33.476-.511.316-.182.763-.182v.658h-.168q-1.071 0-1.071 1.162V61.8h-.637v-3.836h.637zm2.612.091q.195-.343.574-.56t.861-.217q.517 0 .931.245.413.245.651.693.237.441.238 1.029 0 .581-.238 1.036a1.75 1.75 0 0 1-1.582.959q-.497 0-.875-.217a1.5 1.5 0 0 1-.56-.553v.707h-.637v-5.18h.637zm2.604 1.19q0-.434-.175-.756a1.2 1.2 0 0 0-.476-.49 1.3 1.3 0 0 0-.651-.168 1.27 1.27 0 0 0-1.127.672 1.54 1.54 0 0 0-.175.749q0 .435.175.763.182.322.476.497.3.168.651.168.357 0 .651-.168.3-.175.476-.497.174-.33.175-.77m4.989-.133q0 .182-.021.385h-3.066q.035.567.385.889.357.315.861.315.413 0 .686-.189.28-.195.392-.518h.686q-.154.554-.616.903-.462.343-1.148.343-.546 0-.98-.245a1.74 1.74 0 0 1-.672-.693 2.2 2.2 0 0 1-.245-1.05q0-.595.238-1.043t.665-.686q.434-.245.994-.245.546 0 .966.238t.644.658q.231.413.231.938m-.658-.133q0-.364-.161-.623a1 1 0 0 0-.441-.399 1.3 1.3 0 0 0-.609-.14q-.483 0-.826.308-.336.308-.385.854zm1.261.266q0-.588.238-1.029.238-.448.651-.693.42-.245.931-.245.504 0 .875.217.371.218.553.546v-.7h.644V61.8h-.644v-.714q-.189.335-.567.56a1.7 1.7 0 0 1-.868.217q-.512 0-.924-.252a1.77 1.77 0 0 1-.651-.707 2.2 2.2 0 0 1-.238-1.036m3.248.007q0-.434-.175-.756a1.2 1.2 0 0 0-.476-.49 1.25 1.25 0 0 0-.651-.175q-.357 0-.651.168a1.2 1.2 0 0 0-.469.49 1.56 1.56 0 0 0-.175.756q0 .44.175.77.175.322.469.497.294.168.651.168t.651-.168q.301-.175.476-.497.175-.33.175-.763m3.589-1.981q.7 0 1.134.427.434.42.434 1.218V61.8h-.63v-2.17q0-.574-.287-.875-.286-.308-.784-.308-.504 0-.805.315-.294.315-.294.917V61.8h-.637v-3.836h.637v.546q.19-.294.511-.455.33-.16.721-.161m3.967 3.969q-.441 0-.791-.147a1.4 1.4 0 0 1-.553-.42 1.14 1.14 0 0 1-.224-.623h.658a.65.65 0 0 0 .266.469q.245.182.637.182.364 0 .574-.161a.49.49 0 0 0 .21-.406.39.39 0 0 0-.224-.371q-.224-.126-.693-.245a6 6 0 0 1-.7-.224 1.3 1.3 0 0 1-.462-.343q-.189-.231-.189-.602 0-.294.175-.539t.497-.385q.323-.147.735-.147.638 0 1.029.322.391.323.42.882h-.637a.66.66 0 0 0-.245-.483q-.218-.182-.588-.182-.344 0-.546.147a.46.46 0 0 0-.203.385q0 .189.119.315.126.12.308.196.19.07.518.161.412.113.672.224.26.105.441.322.189.218.196.567 0 .315-.175.567a1.2 1.2 0 0 1-.497.399q-.315.14-.728.14"/></g><defs><radialGradient id="b" cx="0" cy="0" r="1" gradientTransform="matrix(0 40 -115.5 0 118.3 42.8)" gradientUnits="userSpaceOnUse"><stop/><stop offset="1" stop-color="#19E852"/></radialGradient><filter id="a" width="237.8" height="86.8" x="0" y="0" color-interpolation-filters="sRGB" filterUnits="userSpaceOnUse"><feFlood flood-opacity="0" result="BackgroundImageFix"/><feColorMatrix in="SourceAlpha" result="hardAlpha" values="0 0 0 0 0 0 0 0 0 0 0 0 0 0 0 0 0 0 127 0"/><feOffset dx=".6" dy=".6"/><feGaussianBlur stdDeviation=".7"/><feComposite in2="hardAlpha" operator="out"/><feColorMatrix values="0 0 0 0 0 0 0 0 0 0 0 0 0 0 0 0 0 0 0.25 0"/><feBlend in2="BackgroundImageFix" result="effect1_dropShadow_4_2"/><feBlend in="SourceGraphic" in2="effect1_dropShadow_4_2" result="shape"/></filter></defs></svg>