<svg xmlns="http://www.w3.org/2000/svg" width="244" height="102" fill="none"><g filter="url(#a)"><path fill="#fff" d="M238.8 50.3c0 25.681-52.607 46.5-117.5 46.5S3.8 75.981 3.8 50.3 56.407 3.8 121.3 3.8s117.5 20.819 117.5 46.5"/><path stroke="#fff" stroke-width="3" d="M121.3 2.3c32.587 0 62.158 5.224 83.637 13.725 10.735 4.248 19.524 9.344 25.654 15.08 6.133 5.738 9.709 12.223 9.709 19.195s-3.576 13.458-9.709 19.195c-6.13 5.736-14.919 10.832-25.654 15.08-21.479 8.5-51.05 13.725-83.637 13.725s-62.157-5.224-83.637-13.725c-10.735-4.248-19.524-9.344-25.654-15.08C5.876 63.757 2.3 57.272 2.3 50.3s3.576-13.457 9.709-19.195c6.13-5.736 14.92-10.832 25.654-15.08C59.143 7.525 88.713 2.3 121.3 2.3Z"/></g><path fill="#2B6AFF" d="M233.8 50.3c0-4.582-2.326-9.468-7.649-14.45-5.332-4.988-13.319-9.71-23.606-13.782C182.001 13.939 153.279 8.8 121.3 8.8s-60.701 5.138-81.245 13.269c-10.287 4.07-18.274 8.793-23.606 13.782C11.126 40.83 8.8 45.718 8.8 50.3s2.326 9.468 7.65 14.45c5.331 4.988 13.318 9.71 23.605 13.781C60.599 86.661 89.32 91.8 121.3 91.8v5C56.407 96.8 3.8 75.981 3.8 50.3S56.407 3.8 121.3 3.8s117.5 20.819 117.5 46.5-52.607 46.5-117.5 46.5v-5c31.979 0 60.701-5.139 81.245-13.269 10.287-4.07 18.274-8.793 23.606-13.782 5.323-4.98 7.649-9.867 7.649-14.449"/><path fill="#000" d="M62.489 29.1h-1.02l.96-2.27h.65zm1.62 0h-1.02l.96-2.27h.65zm3.859-2.27q1.14 0 1.97.43.84.42 1.28 1.21.45.79.45 1.86t-.45 1.86q-.44.78-1.28 1.2-.83.41-1.97.41h-2.17v-6.97zm0 6.22q1.35 0 2.06-.71.71-.72.71-2.01 0-1.3-.72-2.03-.71-.73-2.05-.73h-1.26v5.48zm9.9-2.2q0 .26-.03.55h-4.38q.05.81.55 1.27.51.45 1.23.45.59 0 .98-.27.4-.28.56-.74h.98a2.38 2.38 0 0 1-.88 1.29q-.66.49-1.64.49-.78 0-1.4-.35a2.5 2.5 0 0 1-.96-.99q-.35-.65-.35-1.5t.34-1.49.95-.98q.62-.35 1.42-.35.78 0 1.38.34t.92.94q.33.59.33 1.34m-.94-.19q0-.52-.23-.89a1.45 1.45 0 0 0-.63-.57q-.39-.2-.87-.2-.69 0-1.18.44-.48.44-.55 1.22zm7.141.19q0 .26-.03.55h-4.38q.05.81.55 1.27.51.45 1.23.45.59 0 .98-.27.4-.28.56-.74h.98a2.38 2.38 0 0 1-.88 1.29q-.66.49-1.64.49-.78 0-1.4-.35a2.5 2.5 0 0 1-.96-.99q-.35-.65-.35-1.5t.34-1.49.95-.98q.62-.35 1.42-.35.78 0 1.38.34t.92.94q.33.59.33 1.34m-.94-.19q0-.52-.23-.89a1.45 1.45 0 0 0-.63-.57q-.39-.2-.87-.2-.69 0-1.18.44-.48.44-.55 1.22zm3.051-1.33q.27-.47.8-.78.54-.32 1.25-.32.73 0 1.32.35.6.35.94.99.34.63.34 1.47 0 .83-.34 1.48a2.5 2.5 0 0 1-2.26 1.37q-.7 0-1.24-.31a2.3 2.3 0 0 1-.81-.79v3.61h-.91v-8.08h.91zm3.72 1.71q0-.62-.25-1.08a1.7 1.7 0 0 0-.68-.7q-.42-.24-.93-.24-.5 0-.93.25-.42.24-.68.71-.25.46-.25 1.07 0 .62.25 1.09.26.46.68.71.43.24.93.24.51 0 .93-.24a1.8 1.8 0 0 0 .68-.71q.25-.47.25-1.1m7.854 2.76-2.15-2.42v2.42h-.91v-7.4h.91v4.35l2.11-2.43h1.27l-2.58 2.73 2.59 2.75zm4.757-5.58q.999 0 1.62.61.62.6.62 1.74v3.23h-.9v-3.1q0-.82-.41-1.25-.41-.44-1.12-.44-.72 0-1.15.45-.42.45-.42 1.31v3.03h-.91v-5.48h.91v.78q.27-.42.73-.65.47-.23 1.03-.23m6.116 5.67q-.77 0-1.4-.35a2.55 2.55 0 0 1-.98-.99q-.35-.65-.35-1.5 0-.84.36-1.48.37-.65 1-.99.63-.35 1.41-.35t1.41.35q.63.34.99.98.37.64.37 1.49t-.38 1.5a2.57 2.57 0 0 1-1.01.99q-.64.35-1.42.35m0-.8q.49 0 .92-.23t.69-.69q.27-.46.27-1.12t-.26-1.12a1.67 1.67 0 0 0-.68-.68 1.86 1.86 0 0 0-.91-.23q-.5 0-.92.23a1.63 1.63 0 0 0-.66.68q-.25.46-.25 1.12 0 .67.24 1.13.25.46.66.69.41.22.9.22m11.306-4.77-1.71 5.48h-.94l-1.32-4.35-1.32 4.35h-.94l-1.72-5.48h.93l1.26 4.6 1.36-4.6h.93l1.33 4.61 1.24-4.61zm1.814-1.92v7.4h-.91v-7.4zm6.551 4.45q0 .26-.03.55h-4.38q.05.81.55 1.27.51.45 1.23.45.59 0 .98-.27.4-.28.56-.74h.98q-.22.79-.88 1.29-.66.49-1.64.49-.78 0-1.4-.35a2.5 2.5 0 0 1-.96-.99q-.35-.65-.35-1.5t.34-1.49.95-.98q.62-.35 1.42-.35.78 0 1.38.34t.92.94q.33.59.33 1.34m-.94-.19q0-.52-.23-.89a1.46 1.46 0 0 0-.63-.57q-.39-.2-.87-.2-.69 0-1.18.44-.48.44-.55 1.22zm1.801.38q0-.84.34-1.47a2.46 2.46 0 0 1 .93-.99q.6-.35 1.34-.35.64 0 1.19.3.549.29.84.77v-2.9h.92v7.4h-.92v-1.03q-.27.49-.8.81-.53.31-1.24.31-.73 0-1.33-.36a2.5 2.5 0 0 1-.93-1.01q-.34-.65-.34-1.48m4.64.01q0-.62-.25-1.08a1.73 1.73 0 0 0-.68-.7q-.42-.25-.93-.25t-.93.24-.67.7-.25 1.08q0 .63.25 1.1.25.46.67.71.42.24.93.24t.93-.24q.43-.25.68-.71.25-.47.25-1.09m4.718-2.82q.71 0 1.24.31.54.31.8.78v-1h.92v5.6q0 .75-.32 1.33-.32.59-.92.92-.591.33-1.38.33-1.08 0-1.8-.51a2 2 0 0 1-.85-1.39h.9q.15.5.62.8.47.31 1.13.31.75 0 1.22-.47.48-.47.48-1.32v-1.15q-.27.48-.8.8t-1.24.32q-.73 0-1.33-.36a2.5 2.5 0 0 1-.93-1.01q-.34-.65-.34-1.48 0-.84.34-1.47a2.46 2.46 0 0 1 .93-.99q.6-.35 1.33-.35m2.04 2.82q0-.62-.25-1.08a1.73 1.73 0 0 0-.68-.7q-.42-.25-.93-.25t-.93.24-.67.7-.25 1.08q0 .63.25 1.1.25.46.67.71.42.24.93.24t.93-.24q.43-.25.68-.71.25-.47.25-1.09m7.457-.2q0 .26-.03.55h-4.38q.05.81.55 1.27.51.45 1.23.45.59 0 .98-.27.4-.28.56-.74h.98q-.22.79-.88 1.29-.66.49-1.64.49a2.8 2.8 0 0 1-1.4-.35 2.5 2.5 0 0 1-.96-.99q-.35-.65-.35-1.5t.34-1.49a2.37 2.37 0 0 1 .95-.98q.62-.35 1.42-.35.78 0 1.38.34t.92.94q.33.59.33 1.34m-.94-.19q0-.52-.23-.89a1.44 1.44 0 0 0-.63-.57q-.39-.2-.87-.2-.69 0-1.18.44-.48.44-.55 1.22zm7.198 3.23q-.77 0-1.4-.35a2.54 2.54 0 0 1-.98-.99q-.35-.65-.35-1.5 0-.84.36-1.48.37-.65 1-.99.63-.35 1.41-.35t1.41.35q.63.34.99.98.37.64.37 1.49t-.38 1.5a2.6 2.6 0 0 1-1.01.99q-.64.35-1.42.35m0-.8q.49 0 .92-.23.429-.23.69-.69.27-.46.27-1.12t-.26-1.12a1.67 1.67 0 0 0-.68-.68 1.87 1.87 0 0 0-.91-.23q-.5 0-.92.23a1.6 1.6 0 0 0-.66.68q-.25.46-.25 1.12 0 .67.24 1.13.249.46.66.69.41.22.9.22m6.236-4.02h-1.15v4.73h-.91v-4.73h-.71v-.75h.71v-.39q0-.92.47-1.34.48-.43 1.53-.43v.76q-.6 0-.85.24-.24.23-.24.77v.39h1.15zm4.837 0v3.23q0 .4.17.57.17.16.59.16h.67v.77h-.82q-.76 0-1.14-.35t-.38-1.15v-3.23h-.71v-.75h.71v-1.38h.91v1.38h1.43v.75zm5.253-.85q.62 0 1.12.27.5.26.78.79.29.53.29 1.29v3.23h-.9v-3.1q0-.82-.41-1.25-.41-.44-1.12-.44-.72 0-1.15.45-.42.45-.42 1.31v3.03h-.91v-7.4h.91v2.7q.27-.42.74-.65.48-.23 1.07-.23m8.676 2.63q0 .26-.03.55h-4.38q.05.81.55 1.27.51.45 1.23.45.59 0 .98-.27.4-.28.56-.74h.98q-.22.79-.88 1.29-.66.49-1.64.49-.78 0-1.4-.35a2.5 2.5 0 0 1-.96-.99q-.35-.65-.35-1.5t.34-1.49.95-.98q.62-.35 1.42-.35.78 0 1.38.34t.92.94q.33.59.33 1.34m-.94-.19q0-.52-.23-.89a1.44 1.44 0 0 0-.63-.57q-.39-.2-.87-.2-.69 0-1.18.44-.48.44-.55 1.22zM52.596 42.33q.27-.47.8-.78.54-.32 1.25-.32.73 0 1.32.35.6.35.94.99.34.63.34 1.47 0 .83-.34 1.48a2.5 2.5 0 0 1-2.26 1.37q-.7 0-1.24-.31a2.3 2.3 0 0 1-.81-.79v3.61h-.91v-8.08h.91zm3.72 1.71q0-.62-.25-1.08a1.7 1.7 0 0 0-.68-.7q-.42-.24-.93-.24-.5 0-.93.25-.42.24-.68.71-.25.46-.25 1.07 0 .62.25 1.09.26.46.68.71.43.24.93.24.51 0 .93-.24a1.8 1.8 0 0 0 .68-.71q.25-.47.25-1.1m3.038-1.83q.24-.47.68-.73.45-.26 1.09-.26v.94h-.24q-1.53 0-1.53 1.66v2.98h-.91v-5.48h.91zm5.21 4.68q-.77 0-1.4-.35a2.54 2.54 0 0 1-.98-.99q-.35-.65-.35-1.5 0-.84.36-1.48.37-.65 1-.99.63-.35 1.41-.35t1.41.35q.63.34.99.98.37.64.37 1.49t-.38 1.5a2.57 2.57 0 0 1-1.01.99q-.64.35-1.42.35m0-.8q.49 0 .92-.23t.69-.69q.27-.46.27-1.12t-.26-1.12a1.67 1.67 0 0 0-.68-.68 1.87 1.87 0 0 0-.91-.23q-.5 0-.92.23a1.63 1.63 0 0 0-.66.68q-.25.46-.25 1.12 0 .67.24 1.13.25.46.66.69.411.22.9.22m3.667-2.05q0-.84.34-1.47.34-.64.93-.99.6-.35 1.34-.35.64 0 1.19.3.55.29.84.77v-2.9h.92v7.4h-.92v-1.03q-.27.49-.8.81-.53.31-1.24.31-.73 0-1.33-.36a2.5 2.5 0 0 1-.93-1.01q-.34-.65-.34-1.48m4.64.01q0-.62-.25-1.08a1.7 1.7 0 0 0-.68-.7q-.42-.25-.93-.25t-.93.24a1.74 1.74 0 0 0-.67.7q-.25.46-.25 1.08 0 .63.25 1.1.25.46.67.71.42.24.93.24t.93-.24a1.8 1.8 0 0 0 .68-.71q.25-.47.25-1.09m7.318-2.73v5.48h-.91v-.81q-.26.42-.73.66a2.25 2.25 0 0 1-1.02.23q-.64 0-1.15-.26a2 2 0 0 1-.81-.8q-.29-.53-.29-1.29v-3.21h.9v3.09q0 .81.41 1.25.41.43 1.12.43.73 0 1.15-.45t.42-1.31v-3.01zm1.196 2.73q0-.85.34-1.48.34-.64.94-.99.61-.35 1.39-.35 1.01 0 1.66.49.66.49.87 1.36h-.98a1.4 1.4 0 0 0-.55-.79q-.4-.29-1-.29-.78 0-1.26.54-.48.53-.48 1.51 0 .99.48 1.53t1.26.54q.6 0 1-.28a1.42 1.42 0 0 0 .55-.8h.98q-.22.84-.88 1.35-.66.5-1.65.5-.78 0-1.39-.35a2.45 2.45 0 0 1-.94-.99q-.34-.64-.34-1.5m7.524-1.98v3.23q0 .4.17.57.17.16.59.16h.67v.77h-.82q-.759 0-1.14-.35T88 45.3v-3.23h-.71v-.75H88v-1.38h.91v1.38h1.43v.75zm11.789-.85q.64 0 1.14.27.5.26.79.79t.29 1.29v3.23h-.9v-3.1q0-.82-.41-1.25-.4-.44-1.09-.44-.71 0-1.13.46-.42.45-.42 1.31v3.02h-.9v-3.1q0-.82-.41-1.25-.4-.44-1.09-.44-.71 0-1.13.46-.42.45-.42 1.31v3.02h-.91v-5.48h.91v.79q.27-.43.72-.66.46-.23 1.01-.23.69 0 1.22.31t.79.91q.23-.58.76-.9a2.24 2.24 0 0 1 1.18-.32m8.713 2.63q0 .26-.03.55h-4.38q.05.81.55 1.27.51.45 1.23.45.59 0 .98-.27.4-.28.56-.74h.98q-.22.79-.88 1.29-.66.49-1.64.49-.78 0-1.4-.35a2.5 2.5 0 0 1-.96-.99q-.35-.65-.35-1.5t.34-1.49.95-.98q.62-.35 1.42-.35.78 0 1.38.34t.92.94q.33.59.33 1.34m-.94-.19q0-.52-.23-.89a1.46 1.46 0 0 0-.63-.57q-.39-.2-.87-.2-.69 0-1.18.44-.48.44-.55 1.22zm3.251-1.59v3.23q0 .4.17.57.17.16.59.16h.67v.77h-.82q-.76 0-1.14-.35t-.38-1.15v-3.23h-.71v-.75h.71v-1.38h.91v1.38h1.43v.75zm5.253-.85q.62 0 1.12.27.5.26.78.79.29.53.29 1.29v3.23h-.9v-3.1q0-.82-.41-1.25-.41-.44-1.12-.44-.72 0-1.15.45-.42.45-.42 1.31v3.03h-.91v-7.4h.91v2.7q.27-.42.74-.65.48-.23 1.07-.23m6.066 5.67q-.77 0-1.4-.35a2.55 2.55 0 0 1-.98-.99q-.35-.65-.35-1.5 0-.84.36-1.48.37-.65 1-.99.63-.35 1.41-.35t1.41.35q.63.34.99.98.37.64.37 1.49t-.38 1.5a2.57 2.57 0 0 1-1.01.99q-.64.35-1.42.35m0-.8q.49 0 .92-.23t.69-.69q.27-.46.27-1.12t-.26-1.12a1.67 1.67 0 0 0-.68-.68 1.86 1.86 0 0 0-.91-.23q-.5 0-.92.23a1.63 1.63 0 0 0-.66.68q-.25.46-.25 1.12 0 .67.24 1.13.25.46.66.69.41.22.9.22m3.667-2.05q0-.84.34-1.47a2.46 2.46 0 0 1 .93-.99q.6-.35 1.34-.35.64 0 1.19.3.549.29.84.77v-2.9h.92v7.4h-.92v-1.03q-.27.49-.8.81-.53.31-1.24.31-.73 0-1.33-.36a2.5 2.5 0 0 1-.93-1.01q-.34-.65-.34-1.48m4.64.01q0-.62-.25-1.08a1.73 1.73 0 0 0-.68-.7q-.42-.25-.93-.25t-.93.24-.67.7-.25 1.08q0 .63.25 1.1.25.46.67.71.42.24.93.24t.93-.24q.43-.25.68-.71.25-.47.25-1.09m4.847 2.84q-.77 0-1.4-.35a2.55 2.55 0 0 1-.98-.99q-.35-.65-.35-1.5 0-.84.36-1.48.37-.65 1-.99.63-.35 1.41-.35t1.41.35q.63.34.99.98.37.64.37 1.49t-.38 1.5a2.57 2.57 0 0 1-1.01.99q-.64.35-1.42.35m0-.8q.49 0 .92-.23t.69-.69q.27-.46.27-1.12t-.26-1.12a1.67 1.67 0 0 0-.68-.68 1.86 1.86 0 0 0-.91-.23q-.5 0-.92.23a1.63 1.63 0 0 0-.66.68q-.25.46-.25 1.12 0 .67.24 1.13.25.46.66.69.411.22.9.22m4.917-6.69v7.4h-.91v-7.4zm3.941 7.49q-.77 0-1.4-.35a2.54 2.54 0 0 1-.98-.99q-.35-.65-.35-1.5 0-.84.36-1.48.37-.65 1-.99.63-.35 1.41-.35t1.41.35q.63.34.99.98.37.64.37 1.49t-.38 1.5a2.6 2.6 0 0 1-1.01.99q-.64.35-1.42.35m0-.8q.49 0 .92-.23.429-.23.69-.69.27-.46.27-1.12t-.26-1.12a1.67 1.67 0 0 0-.68-.68 1.87 1.87 0 0 0-.91-.23q-.5 0-.92.23a1.6 1.6 0 0 0-.66.68q-.25.46-.25 1.12 0 .67.24 1.13.249.46.66.69.41.22.9.22m6.266-4.86q.71 0 1.24.31.54.31.8.78v-1h.92v5.6q0 .75-.32 1.33-.32.59-.92.92-.59.33-1.38.33-1.08 0-1.8-.51a2 2 0 0 1-.85-1.39h.9q.15.5.62.8.47.31 1.13.31.75 0 1.22-.47.48-.47.48-1.32v-1.15q-.27.48-.8.8t-1.24.32q-.73 0-1.33-.36a2.53 2.53 0 0 1-.93-1.01 3.15 3.15 0 0 1-.34-1.48q0-.84.34-1.47.34-.64.93-.99.6-.35 1.33-.35m2.04 2.82q0-.62-.25-1.08a1.7 1.7 0 0 0-.68-.7q-.42-.25-.93-.25t-.93.24-.67.7-.25 1.08q0 .63.25 1.1.25.46.67.71.42.24.93.24t.93-.24q.43-.25.68-.71.25-.47.25-1.09m7.178-2.73-3.3 8.06h-.94l1.08-2.64-2.21-5.42h1.01l1.72 4.44 1.7-4.44zm3.241 2.72q0-.84.34-1.47.34-.64.93-.99.6-.35 1.33-.35.72 0 1.25.31t.79.78v-1h.92v5.48h-.92v-1.02q-.27.48-.81.8-.53.31-1.24.31-.73 0-1.32-.36a2.53 2.53 0 0 1-.93-1.01q-.34-.65-.34-1.48m4.64.01q0-.62-.25-1.08a1.7 1.7 0 0 0-.68-.7q-.42-.25-.93-.25t-.93.24-.67.7-.25 1.08q0 .63.25 1.1.25.46.67.71.42.24.93.24t.93-.24a1.8 1.8 0 0 0 .68-.71q.25-.47.25-1.09m5.128-2.83q.999 0 1.62.61.62.6.62 1.74v3.23h-.9v-3.1q0-.82-.41-1.25-.41-.44-1.12-.44-.72 0-1.15.45-.42.45-.42 1.31v3.03h-.91v-5.48h.91v.78q.27-.42.73-.65.47-.23 1.03-.23m3.386 2.82q0-.84.34-1.47.34-.64.93-.99.6-.35 1.34-.35.64 0 1.19.3.55.29.84.77v-2.9h.92v7.4h-.92v-1.03q-.27.49-.8.81-.53.31-1.24.31-.73 0-1.33-.36a2.53 2.53 0 0 1-.93-1.01q-.34-.65-.34-1.48m4.64.01q0-.62-.25-1.08a1.7 1.7 0 0 0-.68-.7q-.42-.25-.93-.25t-.93.24-.67.7-.25 1.08q0 .63.25 1.1.25.46.67.71.42.24.93.24t.93-.24a1.8 1.8 0 0 0 .68-.71q.25-.47.25-1.09m4.784-.01q0-.84.34-1.47.34-.64.93-.99.6-.35 1.33-.35.72 0 1.25.31t.79.78v-1h.92v5.48h-.92v-1.02q-.27.48-.81.8-.53.31-1.24.31-.73 0-1.32-.36a2.53 2.53 0 0 1-.93-1.01q-.34-.65-.34-1.48m4.64.01q0-.62-.25-1.08a1.7 1.7 0 0 0-.68-.7q-.42-.25-.93-.25t-.93.24-.67.7-.25 1.08q0 .63.25 1.1.25.46.67.71.42.24.93.24t.93-.24a1.8 1.8 0 0 0 .68-.71q.25-.47.25-1.09M57.001 55.34q.28-.49.82-.8t1.23-.31q.74 0 1.33.35t.93.99q.34.63.34 1.47 0 .83-.34 1.48a2.5 2.5 0 0 1-2.26 1.37q-.71 0-1.25-.31a2.1 2.1 0 0 1-.8-.79v1.01h-.91v-7.4H57zm3.72 1.7q0-.62-.25-1.08a1.7 1.7 0 0 0-.68-.7q-.42-.24-.93-.24-.501 0-.93.25-.42.24-.68.71-.25.46-.25 1.07 0 .62.25 1.09.26.46.68.71.429.24.93.24.51 0 .93-.24a1.8 1.8 0 0 0 .68-.71q.25-.47.25-1.1m6.987-2.72v5.48h-.91v-.81q-.26.42-.73.66-.459.23-1.02.23-.64 0-1.15-.26a2 2 0 0 1-.81-.8q-.29-.53-.29-1.29v-3.21h.9v3.09q0 .81.41 1.25.41.43 1.12.43.73 0 1.15-.45t.42-1.31v-3.01zm3.477 5.57q-.63 0-1.13-.21a1.96 1.96 0 0 1-.79-.6q-.29-.39-.32-.89h.94a.93.93 0 0 0 .38.67q.35.26.91.26.52 0 .82-.23t.3-.58a.56.56 0 0 0-.32-.53q-.32-.18-.99-.35a8 8 0 0 1-1-.32 1.9 1.9 0 0 1-.66-.49q-.27-.33-.27-.86 0-.42.25-.77a1.66 1.66 0 0 1 .71-.55q.459-.21 1.05-.21.91 0 1.47.46t.6 1.26h-.91a.93.93 0 0 0-.35-.69q-.31-.26-.84-.26-.49 0-.78.21a.65.65 0 0 0-.29.55q0 .27.17.45.18.17.44.28.27.1.74.23.59.16.96.32.369.15.63.46.27.31.28.81 0 .45-.25.81t-.71.57q-.45.2-1.04.2m3.754-6.46a.6.6 0 0 1-.44-.18.6.6 0 0 1-.18-.44q0-.26.18-.44t.44-.18q.25 0 .42.18.18.18.18.44t-.18.44a.56.56 0 0 1-.42.18m.44.89v5.48h-.91v-5.48zm4.221-.1q1 0 1.62.61.62.6.62 1.74v3.23h-.9v-3.1q0-.82-.41-1.25-.41-.44-1.12-.44-.72 0-1.15.45-.42.45-.42 1.31v3.03h-.91v-5.48h.91v.78q.27-.42.73-.65.47-.23 1.03-.23m8.727 2.63q0 .26-.03.55h-4.38q.05.81.55 1.27.51.45 1.23.45.59 0 .98-.27.4-.28.56-.74h.98a2.38 2.38 0 0 1-.88 1.29q-.66.49-1.64.49-.78 0-1.4-.35a2.5 2.5 0 0 1-.96-.99q-.35-.65-.35-1.5t.34-1.49.95-.98q.62-.35 1.42-.35.78 0 1.38.34t.92.94q.33.59.33 1.34m-.94-.19q0-.52-.23-.89a1.45 1.45 0 0 0-.63-.57q-.39-.2-.87-.2-.69 0-1.18.44-.48.44-.55 1.22zm4.081 3.23q-.63 0-1.13-.21a1.96 1.96 0 0 1-.79-.6q-.29-.39-.32-.89h.94a.93.93 0 0 0 .38.67q.35.26.91.26.52 0 .82-.23t.3-.58a.56.56 0 0 0-.32-.53q-.32-.18-.99-.35a8 8 0 0 1-1-.32 1.9 1.9 0 0 1-.66-.49q-.27-.33-.27-.86 0-.42.25-.77a1.66 1.66 0 0 1 .71-.55q.46-.21 1.05-.21.91 0 1.47.46t.6 1.26h-.91a.93.93 0 0 0-.35-.69q-.31-.26-.84-.26-.49 0-.78.21a.65.65 0 0 0-.29.55q0 .27.17.45.18.17.44.28.27.1.74.23.59.16.96.32.37.15.63.46.27.31.28.81 0 .45-.25.81t-.71.57q-.45.2-1.04.2m5.225 0q-.63 0-1.13-.21a1.96 1.96 0 0 1-.79-.6q-.29-.39-.32-.89h.94a.93.93 0 0 0 .38.67q.35.26.91.26.52 0 .82-.23t.3-.58a.56.56 0 0 0-.32-.53q-.321-.18-.99-.35a8 8 0 0 1-1-.32 1.9 1.9 0 0 1-.66-.49q-.27-.33-.27-.86 0-.42.25-.77a1.66 1.66 0 0 1 .71-.55q.459-.21 1.05-.21.909 0 1.47.46t.6 1.26h-.91a.93.93 0 0 0-.35-.69q-.31-.26-.84-.26-.49 0-.78.21a.65.65 0 0 0-.29.55q0 .27.17.45.18.17.44.28.27.1.74.23.59.16.96.32.369.15.63.46.27.31.28.81 0 .45-.25.81t-.71.57q-.45.2-1.04.2m6.86-7.49v7.4h-.91v-7.4zm3.941 7.49q-.77 0-1.4-.35a2.55 2.55 0 0 1-.98-.99q-.35-.65-.35-1.5 0-.84.36-1.48.37-.65 1-.99.63-.35 1.41-.35t1.41.35q.63.34.99.98.37.64.37 1.49t-.38 1.5a2.57 2.57 0 0 1-1.01.99q-.64.35-1.42.35m0-.8q.49 0 .92-.23t.69-.69q.27-.46.27-1.12t-.26-1.12a1.67 1.67 0 0 0-.68-.68 1.86 1.86 0 0 0-.91-.23q-.5 0-.92.23a1.63 1.63 0 0 0-.66.68q-.25.46-.25 1.12 0 .67.24 1.13.25.46.66.69.411.22.9.22m6.677-4.87q.999 0 1.62.61.62.6.62 1.74v3.23h-.9v-3.1q0-.82-.41-1.25-.41-.44-1.12-.44-.72 0-1.15.45-.42.45-.42 1.31v3.03h-.91v-5.48h.91v.78q.27-.42.73-.65.47-.23 1.03-.23m5.986.01q.71 0 1.24.31.54.31.8.78v-1h.92v5.6q0 .75-.32 1.33-.32.59-.92.92-.59.33-1.38.33-1.08 0-1.8-.51a2 2 0 0 1-.85-1.39h.9q.15.5.62.8.47.31 1.13.31.75 0 1.22-.47.48-.47.48-1.32v-1.15q-.27.48-.8.8t-1.24.32q-.73 0-1.33-.36a2.53 2.53 0 0 1-.93-1.01q-.34-.65-.34-1.48 0-.84.34-1.47.34-.64.93-.99.6-.35 1.33-.35m2.04 2.82q0-.62-.25-1.08a1.7 1.7 0 0 0-.68-.7q-.42-.25-.93-.25t-.93.24-.67.7-.25 1.08q0 .63.25 1.1.25.46.67.71.42.24.93.24t.93-.24a1.8 1.8 0 0 0 .68-.71q.25-.47.25-1.09m6.258-1.3v.77h-3.99v-.77zm2.818-.68v3.23q0 .4.17.57.17.16.59.16h.67v.77h-.82q-.76 0-1.14-.35t-.38-1.15v-3.23h-.71v-.75h.71v-1.38h.91v1.38h1.43v.75zm7.532 1.78q0 .26-.03.55h-4.38q.05.81.55 1.27.51.45 1.23.45.59 0 .98-.27.4-.28.56-.74h.98q-.22.79-.88 1.29-.66.49-1.64.49a2.8 2.8 0 0 1-1.4-.35 2.5 2.5 0 0 1-.96-.99q-.35-.65-.35-1.5t.34-1.49a2.37 2.37 0 0 1 .95-.98q.62-.35 1.42-.35.78 0 1.38.34t.92.94q.33.59.33 1.34m-.94-.19q0-.52-.23-.89a1.44 1.44 0 0 0-.63-.57q-.39-.2-.87-.2-.69 0-1.18.44-.48.44-.55 1.22zm3.052-1.45a1.75 1.75 0 0 1 .68-.73q.45-.26 1.09-.26v.94h-.24q-1.53 0-1.53 1.66v2.98h-.91v-5.48h.91zm9.41-.99q.64 0 1.14.27.5.26.79.79t.29 1.29v3.23h-.9v-3.1q0-.82-.41-1.25-.4-.44-1.09-.44-.71 0-1.13.46-.42.45-.42 1.31v3.02h-.9v-3.1q0-.82-.41-1.25-.4-.44-1.09-.44-.71 0-1.13.46-.42.45-.42 1.31v3.02h-.91v-5.48h.91v.79q.27-.43.72-.66.46-.23 1.01-.23.69 0 1.22.31t.79.91q.23-.58.76-.9a2.24 2.24 0 0 1 1.18-.32m8.419 4.74 1.7-4.64h.97l-2.15 5.48h-1.06l-2.15-5.48h.98zm4.035-5.53a.6.6 0 0 1-.44-.18.6.6 0 0 1-.18-.44q0-.26.18-.44t.44-.18q.25 0 .42.18.18.18.18.44t-.18.44a.55.55 0 0 1-.42.18m.44.89v5.48h-.91v-5.48zm3.491 5.57q-.63 0-1.13-.21a1.96 1.96 0 0 1-.79-.6q-.29-.39-.32-.89h.94a.93.93 0 0 0 .38.67q.35.26.91.26.52 0 .82-.23t.3-.58a.56.56 0 0 0-.32-.53q-.32-.18-.99-.35a8 8 0 0 1-1-.32 1.9 1.9 0 0 1-.66-.49q-.27-.33-.27-.86 0-.42.25-.77a1.66 1.66 0 0 1 .71-.55q.46-.21 1.05-.21.91 0 1.47.46t.6 1.26h-.91a.94.94 0 0 0-.35-.69q-.31-.26-.84-.26-.49 0-.78.21a.65.65 0 0 0-.29.55q0 .27.17.45.18.17.44.28.27.1.74.23.59.16.96.32.37.15.63.46.27.31.28.81 0 .45-.25.81t-.71.57q-.45.2-1.04.2m3.755-6.46a.6.6 0 0 1-.44-.18.6.6 0 0 1-.18-.44q0-.26.18-.44t.44-.18q.249 0 .42.18.18.18.18.44t-.18.44a.56.56 0 0 1-.42.18m.44.89v5.48h-.91v-5.48zm3.941 5.57q-.77 0-1.4-.35a2.54 2.54 0 0 1-.98-.99q-.35-.65-.35-1.5 0-.84.36-1.48.37-.65 1-.99.63-.35 1.41-.35t1.41.35q.63.34.99.98.37.64.37 1.49t-.38 1.5a2.6 2.6 0 0 1-1.01.99q-.64.35-1.42.35m0-.8q.49 0 .92-.23.429-.23.69-.69.27-.46.27-1.12t-.26-1.12a1.67 1.67 0 0 0-.68-.68 1.87 1.87 0 0 0-.91-.23q-.5 0-.92.23a1.6 1.6 0 0 0-.66.68q-.25.46-.25 1.12 0 .67.24 1.13.249.46.66.69.41.22.9.22m6.676-4.87q1 0 1.62.61.62.6.62 1.74v3.23h-.9v-3.1q0-.82-.41-1.25-.41-.44-1.12-.44-.72 0-1.15.45-.42.45-.42 1.31v3.03h-.91v-5.48h.91v.78q.27-.42.73-.65.47-.23 1.03-.23m3.867-1.39h1.01l-.96 2.27h-.64zm1.62 0h1.01l-.96 2.27h-.65zM61.055 69.956V74.8h-.637v-3.612l-1.61 3.612h-.448l-1.617-3.619V74.8h-.637v-4.844h.686l1.792 4.004 1.792-4.004zm.842 2.912q0-.588.238-1.029.239-.448.65-.693.42-.245.932-.245.504 0 .875.217.371.218.553.546v-.7h.644V74.8h-.644v-.714q-.189.335-.567.56a1.7 1.7 0 0 1-.868.217q-.51 0-.924-.252a1.77 1.77 0 0 1-.651-.707 2.2 2.2 0 0 1-.238-1.036m3.248.007q0-.434-.175-.756a1.2 1.2 0 0 0-.476-.49 1.25 1.25 0 0 0-.651-.175q-.357 0-.651.168a1.2 1.2 0 0 0-.47.49 1.56 1.56 0 0 0-.174.756q0 .44.175.77.175.322.469.497.294.168.65.168.358 0 .652-.168.301-.175.476-.497a1.6 1.6 0 0 0 .175-.763m2.497-1.386v2.261q0 .28.12.399.118.112.412.112h.47v.539h-.575q-.531 0-.798-.245-.266-.245-.266-.805v-2.261h-.497v-.525h.497v-.966h.637v.966h1.001v.525zm2.41-.525V74.8h-.637v-3.836zm.364-1.085-1.49.798v-.476l1.49-.875zm.484 2.989q0-.588.238-1.029.237-.448.65-.693.42-.245.932-.245.504 0 .875.217.37.218.553.546v-.7h.644V74.8h-.644v-.714q-.189.335-.567.56a1.7 1.7 0 0 1-.868.217 1.74 1.74 0 0 1-.924-.252 1.77 1.77 0 0 1-.651-.707 2.2 2.2 0 0 1-.238-1.036m3.248.007q0-.434-.175-.756a1.2 1.2 0 0 0-.476-.49 1.25 1.25 0 0 0-.651-.175q-.357 0-.651.168a1.2 1.2 0 0 0-.47.49 1.56 1.56 0 0 0-.174.756q0 .44.175.77.175.322.469.497.294.168.65.168.358 0 .652-.168.301-.175.476-.497a1.6 1.6 0 0 0 .175-.763m3.078 1.988q-.44 0-.79-.147a1.4 1.4 0 0 1-.554-.42 1.14 1.14 0 0 1-.224-.623h.658a.65.65 0 0 0 .266.469q.246.182.637.182.364 0 .574-.161a.49.49 0 0 0 .21-.406.39.39 0 0 0-.224-.371q-.224-.126-.693-.245a6 6 0 0 1-.7-.224 1.3 1.3 0 0 1-.462-.343q-.189-.231-.189-.602 0-.294.175-.539.176-.245.497-.385.323-.147.735-.147.637 0 1.03.322.39.323.42.882h-.638a.65.65 0 0 0-.245-.483q-.216-.182-.588-.182-.342 0-.546.147a.45.45 0 0 0-.203.385q0 .189.12.315.125.12.307.196.19.07.518.161.414.113.672.224.26.105.441.322.19.218.196.567a.97.97 0 0 1-.175.567 1.2 1.2 0 0 1-.497.399q-.314.14-.728.14m5.685-4.942q.797 0 1.379.301.588.294.896.847.315.553.315 1.302 0 .75-.315 1.302a2.06 2.06 0 0 1-.896.84q-.581.287-1.38.287h-1.518v-4.879zm0 4.354q.944 0 1.442-.497.497-.504.497-1.407 0-.91-.504-1.421-.498-.51-1.435-.511h-.882v3.836zm6.93-1.54q0 .182-.021.385h-3.066q.035.567.385.889.357.315.861.315.413 0 .686-.189.28-.195.392-.518h.686q-.154.553-.616.903-.462.343-1.148.343-.545 0-.98-.245a1.75 1.75 0 0 1-.672-.693 2.2 2.2 0 0 1-.245-1.05q0-.595.238-1.043t.665-.686q.434-.245.994-.245.546 0 .966.238t.644.658q.231.413.231.938m-.658-.133q0-.364-.161-.623a1 1 0 0 0-.441-.399 1.3 1.3 0 0 0-.609-.14q-.483 0-.826.308-.336.308-.385.854zm1.26.273q0-.595.239-1.036.237-.448.658-.693a1.9 1.9 0 0 1 .973-.245q.706 0 1.162.343.461.343.609.952h-.686a.98.98 0 0 0-.385-.553q-.28-.203-.7-.203-.546 0-.882.378-.336.371-.336 1.057 0 .693.336 1.071t.882.378q.42 0 .7-.196a1 1 0 0 0 .385-.56h.686a1.7 1.7 0 0 1-.616.945q-.462.35-1.155.35a1.9 1.9 0 0 1-.973-.245q-.42-.245-.658-.693a2.2 2.2 0 0 1-.238-1.05m7.893-1.911V74.8h-.637v-.567q-.183.294-.511.462a1.6 1.6 0 0 1-.714.161q-.448 0-.805-.182a1.4 1.4 0 0 1-.567-.56q-.203-.37-.203-.903v-2.247h.63v2.163q0 .567.287.875.286.3.784.301.51 0 .805-.315.294-.315.294-.917v-2.107zm2.944-.07q.7 0 1.134.427.434.42.434 1.218V74.8h-.63v-2.17q0-.574-.287-.875-.286-.308-.784-.308-.504 0-.805.315-.294.315-.294.917V74.8h-.637v-3.836h.637v.546q.19-.294.511-.455.33-.16.721-.161m2.371 1.974q0-.588.238-1.029a1.7 1.7 0 0 1 .651-.693q.42-.245.938-.245.447 0 .833.21.384.203.588.539v-2.03h.644v5.18h-.644v-.721a1.5 1.5 0 0 1-.56.567 1.7 1.7 0 0 1-.868.217q-.511 0-.931-.252a1.76 1.76 0 0 1-.651-.707 2.2 2.2 0 0 1-.238-1.036m3.248.007q0-.434-.175-.756a1.2 1.2 0 0 0-.476-.49 1.25 1.25 0 0 0-.651-.175q-.357 0-.651.168a1.2 1.2 0 0 0-.469.49 1.56 1.56 0 0 0-.175.756q0 .44.175.77.174.322.469.497.294.168.651.168t.651-.168q.3-.175.476-.497.174-.33.175-.763m3.393 1.988q-.539 0-.98-.245a1.8 1.8 0 0 1-.686-.693 2.2 2.2 0 0 1-.245-1.05q0-.588.252-1.036.26-.455.7-.693.441-.245.987-.245t.987.245q.441.238.693.686.26.448.259 1.043 0 .596-.266 1.05-.258.449-.707.693-.447.245-.994.245m0-.56q.344 0 .644-.161.301-.16.483-.483.189-.322.189-.784 0-.463-.182-.784a1.17 1.17 0 0 0-.476-.476 1.3 1.3 0 0 0-.637-.161 1.3 1.3 0 0 0-.644.161 1.14 1.14 0 0 0-.462.476 1.6 1.6 0 0 0-.175.784q0 .469.168.791.176.323.462.483.288.154.63.154"/><path fill="#3B3B3B" d="M118.225 71.349q0 .609-.42 1.015-.413.399-1.267.399h-.938V74.8h-.637v-4.879h1.575q.826 0 1.253.399.434.399.434 1.029m-1.687.889q.532 0 .784-.231.252-.23.252-.658 0-.903-1.036-.903h-.938v1.792zm3.116-.651q.168-.33.476-.511a1.5 1.5 0 0 1 .763-.182v.658h-.168q-1.071 0-1.071 1.162V74.8h-.637v-3.836h.637zm3.647 3.276q-.539 0-.98-.245a1.8 1.8 0 0 1-.686-.693 2.2 2.2 0 0 1-.245-1.05q0-.588.252-1.036.26-.455.7-.693.441-.245.987-.245t.987.245q.441.238.693.686.26.448.259 1.043 0 .596-.266 1.05-.259.449-.707.693-.448.245-.994.245m0-.56q.343 0 .644-.161.301-.16.483-.483.189-.322.189-.784 0-.463-.182-.784a1.17 1.17 0 0 0-.476-.476 1.3 1.3 0 0 0-.637-.161 1.3 1.3 0 0 0-.644.161 1.14 1.14 0 0 0-.462.476q-.175.322-.175.784 0 .469.168.791.175.323.462.483.287.154.63.154m2.567-1.435q0-.588.238-1.029a1.7 1.7 0 0 1 .651-.693q.42-.245.938-.245.447 0 .833.21.384.203.588.539v-2.03h.644v5.18h-.644v-.721a1.5 1.5 0 0 1-.56.567 1.7 1.7 0 0 1-.868.217q-.511 0-.931-.252a1.76 1.76 0 0 1-.651-.707 2.2 2.2 0 0 1-.238-1.036m3.248.007q0-.434-.175-.756a1.2 1.2 0 0 0-.476-.49 1.25 1.25 0 0 0-.651-.175q-.357 0-.651.168a1.2 1.2 0 0 0-.469.49 1.56 1.56 0 0 0-.175.756q0 .44.175.77.174.322.469.497.294.168.651.168t.651-.168q.3-.175.476-.497.175-.33.175-.763m5.122-1.911V74.8h-.637v-.567a1.26 1.26 0 0 1-.511.462 1.6 1.6 0 0 1-.714.161q-.448 0-.805-.182a1.4 1.4 0 0 1-.567-.56q-.203-.37-.203-.903v-2.247h.63v2.163q0 .567.287.875.287.3.784.301.511 0 .805-.315t.294-.917v-2.107zm.838 1.911q0-.595.238-1.036a1.7 1.7 0 0 1 .658-.693q.427-.245.973-.245.706 0 1.162.343.462.343.609.952h-.686a.98.98 0 0 0-.385-.553q-.28-.203-.7-.203-.546 0-.882.378-.336.371-.336 1.057 0 .693.336 1.071t.882.378q.42 0 .7-.196a1 1 0 0 0 .385-.56h.686a1.7 1.7 0 0 1-.616.945q-.462.35-1.155.35-.546 0-.973-.245a1.7 1.7 0 0 1-.658-.693 2.2 2.2 0 0 1-.238-1.05m5.267-1.386v2.261q0 .28.119.399.119.112.413.112h.469v.539h-.574q-.532 0-.798-.245t-.266-.805v-2.261h-.497v-.525h.497v-.966h.637v.966h1.001v.525zm4.276 2.793h1.708v.518h-2.345v-4.879h.637zm5.884-1.547q0 .182-.021.385h-3.066q.035.567.385.889.357.315.861.315.413 0 .686-.189.28-.195.392-.518h.686q-.154.553-.616.903-.462.343-1.148.343-.546 0-.98-.245a1.74 1.74 0 0 1-.672-.693 2.2 2.2 0 0 1-.245-1.05q0-.595.238-1.043t.665-.686q.434-.245.994-.245.546 0 .966.238t.644.658q.231.413.231.938m-.658-.133q0-.364-.161-.623a1 1 0 0 0-.441-.399 1.3 1.3 0 0 0-.609-.14q-.483 0-.826.308-.336.308-.385.854zm1.261.266q0-.588.238-1.029.238-.448.651-.693.42-.245.931-.245.504 0 .875.217.371.218.553.546v-.7h.644V74.8h-.644v-.714q-.189.335-.567.56a1.7 1.7 0 0 1-.868.217q-.511 0-.924-.252a1.77 1.77 0 0 1-.651-.707 2.2 2.2 0 0 1-.238-1.036m3.248.007q0-.434-.175-.756a1.2 1.2 0 0 0-.476-.49 1.25 1.25 0 0 0-.651-.175q-.357 0-.651.168a1.2 1.2 0 0 0-.469.49 1.56 1.56 0 0 0-.175.756q0 .44.175.77.175.322.469.497.294.168.651.168t.651-.168q.301-.175.476-.497.175-.33.175-.763m1.482-.007q0-.588.238-1.029.238-.448.651-.693.42-.245.938-.245.449 0 .833.21.386.203.588.539v-2.03h.644v5.18h-.644v-.721a1.5 1.5 0 0 1-.56.567 1.7 1.7 0 0 1-.868.217q-.51 0-.931-.252a1.77 1.77 0 0 1-.651-.707 2.2 2.2 0 0 1-.238-1.036m3.248.007q0-.434-.175-.756a1.2 1.2 0 0 0-.476-.49 1.25 1.25 0 0 0-.651-.175q-.357 0-.651.168a1.2 1.2 0 0 0-.469.49 1.57 1.57 0 0 0-.175.756q0 .44.175.77.175.322.469.497.294.168.651.168t.651-.168q.302-.175.476-.497.175-.33.175-.763m5.221-.14q0 .182-.021.385h-3.066q.034.567.385.889.357.315.861.315.413 0 .686-.189.28-.195.392-.518h.686q-.154.553-.616.903-.462.343-1.148.343-.546 0-.98-.245a1.74 1.74 0 0 1-.672-.693 2.2 2.2 0 0 1-.245-1.05q0-.595.238-1.043.237-.448.665-.686.433-.245.994-.245.546 0 .966.238t.644.658q.231.413.231.938m-.658-.133q0-.364-.161-.623a1 1 0 0 0-.441-.399 1.3 1.3 0 0 0-.609-.14q-.484 0-.826.308-.337.308-.385.854zm2.136-1.015q.167-.33.476-.511a1.5 1.5 0 0 1 .763-.182v.658h-.168q-1.071 0-1.071 1.162V74.8h-.637v-3.836h.637zm7.34-1.274q.778 0 1.351.294.575.294.882.826.308.525.308 1.218 0 .553-.182 1.064a2 2 0 0 1-.532.819 1.15 1.15 0 0 1-.805.315q-.35 0-.539-.175a.7.7 0 0 1-.217-.476q-.216.301-.553.476a1.47 1.47 0 0 1-.7.175q-.531 0-.84-.322-.3-.33-.301-.882 0-.525.217-.98.225-.455.616-.728.393-.28.889-.28.665 0 .896.504l.077-.434h.553l-.35 2.023a1.6 1.6 0 0 0-.021.245q0 .42.371.42.28 0 .483-.266.21-.266.315-.665.105-.406.105-.798 0-.917-.553-1.421-.545-.504-1.547-.504-.833 0-1.505.406a2.8 2.8 0 0 0-1.043 1.099 3.2 3.2 0 0 0-.378 1.547q-.006.924.553 1.421.561.504 1.554.504.658 0 1.162-.238l.084.434a3.5 3.5 0 0 1-1.372.259q-.749 0-1.323-.287a2.06 2.06 0 0 1-.882-.812q-.308-.525-.308-1.225 0-.987.455-1.799a3.35 3.35 0 0 1 1.26-1.288 3.6 3.6 0 0 1 1.82-.469m-.798 4.039q.315 0 .581-.182a1.3 1.3 0 0 0 .42-.504q.154-.322.154-.7 0-.364-.203-.588-.195-.231-.56-.231a.94.94 0 0 0-.595.203q-.252.196-.392.525-.14.322-.14.672 0 .37.189.588t.546.217m10.166 1.372-.973-.973q-.356.098-.728.098-.678 0-1.239-.315a2.4 2.4 0 0 1-.889-.889 2.6 2.6 0 0 1-.322-1.288q0-.714.322-1.281a2.33 2.33 0 0 1 .889-.889 2.44 2.44 0 0 1 1.239-.322q.687 0 1.246.322.561.315.882.882.322.567.322 1.288 0 .7-.308 1.26a2.3 2.3 0 0 1-.847.882l1.232 1.225zm-3.5-3.367q0 .58.231 1.022.239.44.644.679.414.238.924.238.512 0 .917-.238.414-.238.644-.679.238-.441.238-1.022 0-.588-.238-1.022a1.66 1.66 0 0 0-.637-.679 1.8 1.8 0 0 0-.924-.238q-.517 0-.924.238-.405.238-.644.679-.231.434-.231 1.022m8.506-1.393V74.8h-.637v-.567a1.26 1.26 0 0 1-.511.462 1.6 1.6 0 0 1-.714.161q-.448 0-.805-.182a1.4 1.4 0 0 1-.567-.56q-.203-.37-.203-.903v-2.247h.63v2.163q0 .567.287.875.287.3.784.301.511 0 .805-.315t.294-.917v-2.107z"/><defs><filter id="a" width="243.8" height="101.8" x="0" y="0" color-interpolation-filters="sRGB" filterUnits="userSpaceOnUse"><feFlood flood-opacity="0" result="BackgroundImageFix"/><feColorMatrix in="SourceAlpha" result="hardAlpha" values="0 0 0 0 0 0 0 0 0 0 0 0 0 0 0 0 0 0 127 0"/><feOffset dx=".6" dy=".6"/><feGaussianBlur stdDeviation=".7"/><feComposite in2="hardAlpha" operator="out"/><feColorMatrix values="0 0 0 0 0 0 0 0 0 0 0 0 0 0 0 0 0 0 0.25 0"/><feBlend in2="BackgroundImageFix" result="effect1_dropShadow_2_66"/><feBlend in="SourceGraphic" in2="effect1_dropShadow_2_66" result="shape"/></filter></defs></svg>