<?xml version="1.0" encoding="utf-8"?>
<!-- Generator: Adobe Illustrator 22.1.0, SVG Export Plug-In . SVG Version: 6.00 Build 0)  -->
<svg version="1.1" id="Layer_1" xmlns="http://www.w3.org/2000/svg" xmlns:xlink="http://www.w3.org/1999/xlink" x="0px" y="0px"
	 viewBox="0 0 56.7 56.7" style="enable-background:new 0 0 56.7 56.7;" xml:space="preserve">
<style type="text/css">
	.st0{fill:#FFFFFF;}
</style>
<g>
	<polygon class="st0" points="17.8,31.9 19.6,31.9 19.6,40.7 21.3,40.7 21.3,31.9 23.1,31.9 23.1,30.3 17.8,30.3 	"/>
	<path class="st0" d="M28.4,24.5c0.2,0,0.4-0.1,0.6-0.2c0.1-0.1,0.2-0.3,0.2-0.5v-4.6c0-0.2-0.1-0.3-0.2-0.4
		c-0.1-0.1-0.3-0.2-0.6-0.2c-0.2,0-0.4,0.1-0.5,0.2c-0.1,0.1-0.2,0.3-0.2,0.4v4.6c0,0.2,0.1,0.4,0.2,0.5
		C28,24.4,28.2,24.5,28.4,24.5z"/>
	<path class="st0" d="M32.2,33c-0.2,0-0.5,0.1-0.7,0.2c-0.2,0.1-0.4,0.3-0.7,0.5v-3.3h-1.5v10.4h1.5v-0.6c0.2,0.2,0.4,0.4,0.7,0.5
		c0.2,0.1,0.5,0.2,0.8,0.2c0.5,0,0.8-0.1,1-0.4c0.2-0.3,0.4-0.7,0.4-1.2v-4.2c0-0.6-0.1-1.1-0.4-1.4C33.1,33.1,32.7,33,32.2,33z
		 M32.1,38.9c0,0.2,0,0.4-0.1,0.5c-0.1,0.1-0.2,0.2-0.4,0.2c-0.1,0-0.3,0-0.4-0.1c-0.1-0.1-0.2-0.1-0.4-0.3v-4.8
		c0.1-0.1,0.2-0.2,0.3-0.2c0.1-0.1,0.2-0.1,0.3-0.1c0.2,0,0.4,0.1,0.5,0.2c0.1,0.1,0.2,0.3,0.2,0.6V38.9z"/>
	<path class="st0" d="M26.6,38.9c-0.1,0.2-0.3,0.3-0.5,0.4c-0.2,0.1-0.3,0.2-0.4,0.2c-0.1,0-0.2,0-0.3-0.1c-0.1-0.1-0.1-0.2-0.1-0.4
		v-5.9h-1.5v6.4c0,0.5,0.1,0.8,0.3,1c0.2,0.2,0.4,0.3,0.8,0.3c0.3,0,0.6-0.1,0.9-0.2c0.3-0.2,0.6-0.4,0.9-0.7v0.8h1.5v-7.6h-1.5
		L26.6,38.9L26.6,38.9z"/>
	<path class="st0" d="M28.3,5.2c-13.6,0-24.6,11-24.6,24.6c0,13.6,11,24.6,24.6,24.6S53,43.4,53,29.8C53,16.2,41.9,5.2,28.3,5.2z
		 M32.3,17.3H34v6.5c0,0.2,0,0.3,0.1,0.4c0.1,0.1,0.2,0.1,0.3,0.1c0.1,0,0.3-0.1,0.5-0.2c0.2-0.1,0.4-0.3,0.5-0.5v-6.4h1.7v8.4h-1.7
		v-0.9c-0.3,0.3-0.6,0.6-1,0.8c-0.3,0.2-0.7,0.3-1,0.3c-0.4,0-0.7-0.1-0.9-0.4c-0.2-0.2-0.3-0.6-0.3-1.1
		C32.3,24.4,32.3,17.3,32.3,17.3z M25.9,19.2c0-0.6,0.2-1.2,0.7-1.6c0.5-0.4,1.1-0.6,1.9-0.6c0.7,0,1.3,0.2,1.8,0.6
		c0.5,0.4,0.7,0.9,0.7,1.6v4.4c0,0.7-0.2,1.3-0.7,1.7c-0.4,0.4-1.1,0.6-1.8,0.6c-0.8,0-1.4-0.2-1.8-0.6c-0.5-0.4-0.7-1-0.7-1.7
		L25.9,19.2L25.9,19.2z M21.2,14.3l1.3,4.6h0.1l1.2-4.6h2L23.5,21v4.7h-1.9v-4.5l-2.3-6.9H21.2z M43.8,38.4c0,3-2.5,5.5-5.5,5.5
		H19.1c-3,0-5.5-2.5-5.5-5.5v-4.4c0-3,2.5-5.5,5.5-5.5h19.2c3,0,5.5,2.5,5.5,5.5V38.4z"/>
	<path class="st0" d="M36.8,32.9c-0.7,0-1.2,0.2-1.7,0.6c-0.4,0.4-0.7,1-0.7,1.6v3.4c0,0.7,0.2,1.3,0.6,1.7c0.4,0.4,0.9,0.6,1.6,0.6
		c0.8,0,1.3-0.2,1.7-0.6c0.4-0.4,0.6-1,0.6-1.8v-0.4h-1.6v0.3c0,0.5-0.1,0.7-0.2,0.9s-0.3,0.2-0.5,0.2c-0.2,0-0.4-0.1-0.5-0.2
		c-0.1-0.2-0.1-0.4-0.1-0.8v-1.4H39v-2c0-0.7-0.2-1.3-0.6-1.7C38.1,33.1,37.5,32.9,36.8,32.9z M37.4,35.9h-1.3v-0.8
		c0-0.3,0-0.6,0.2-0.7c0.1-0.1,0.3-0.2,0.5-0.2c0.2,0,0.4,0.1,0.5,0.2c0.1,0.1,0.2,0.4,0.2,0.7L37.4,35.9L37.4,35.9z"/>
</g>
</svg>
